<svg width="283" height="91" viewBox="0 0 283 91" fill="none" xmlns="http://www.w3.org/2000/svg">
<circle cx="69.4413" cy="21.8369" r="21.8369" fill="#89F4FB" fill-opacity="0.75"/>
<circle cx="36.249" cy="39.3063" r="21.8369" fill="#248CBC" fill-opacity="0.75"/>
<circle cx="63.1083" cy="40.8349" r="21.8369" fill="#66F5FF" fill-opacity="0.75"/>
<circle cx="106.782" cy="32.3185" r="21.8369" fill="#89F4FB" fill-opacity="0.75"/>
<circle cx="89.3124" cy="50.0063" r="21.8369" fill="#80C3F2" fill-opacity="0.75"/>
<circle cx="33.1918" cy="56.9943" r="21.8369" fill="#80C3F2" fill-opacity="0.75"/>
<circle cx="136.917" cy="41.2717" r="21.8369" fill="#89F4FB" fill-opacity="0.75"/>
<circle cx="107.874" cy="41.2717" r="21.8369" fill="#89F4FB" fill-opacity="0.75"/>
<circle cx="148.927" cy="30.79" r="21.8369" fill="#80C3F2" fill-opacity="0.75"/>
<circle cx="104.817" cy="50.2248" r="21.8369" fill="#80C3F2" fill-opacity="0.75"/>
<circle cx="202.864" cy="62.6718" r="21.8369" fill="#80C3F2" fill-opacity="0.75"/>
<circle cx="173.166" cy="50.0063" r="21.8369" fill="#57A5C9" fill-opacity="0.74"/>
<circle cx="177.315" cy="28.3879" r="21.8369" fill="#89F4FB" fill-opacity="0.75"/>
<circle cx="228.414" cy="30.3532" r="21.8369" fill="#89F4FB" fill-opacity="0.75"/>
<circle cx="125.344" cy="30.1347" r="21.8369" fill="#57A5C9" fill-opacity="0.74"/>
<circle cx="81.4516" cy="30.3532" r="21.8369" fill="#57A5C9" fill-opacity="0.74"/>
<circle cx="49.5698" cy="30.1347" r="21.8369" fill="#8DCDFF" fill-opacity="0.75"/>
<circle cx="206.577" cy="28.1696" r="21.8369" fill="#57A5C9" fill-opacity="0.74"/>
<circle cx="218.587" cy="64.6371" r="21.8369" fill="#57A5C9" fill-opacity="0.74"/>
<circle cx="229.505" cy="56.5576" r="21.8369" fill="#57A5C9" fill-opacity="0.74"/>
<circle cx="260.295" cy="30.3532" r="21.8369" fill="#57A5C9" fill-opacity="0.74"/>
<circle cx="218.805" cy="39.7431" r="21.8369" fill="#80C3F2" fill-opacity="0.75"/>
<circle cx="251.779" cy="69.0046" r="21.8369" fill="#80C3F2" fill-opacity="0.75"/>
<circle cx="253.089" cy="51.5351" r="21.8369" fill="#89F4FB" fill-opacity="0.75"/>
<circle cx="195.003" cy="50.2248" r="21.8369" fill="#89F4FB" fill-opacity="0.75"/>
<circle cx="56.3388" cy="55.029" r="21.8369" fill="#57A5C9" fill-opacity="0.74"/>
<circle cx="79.9228" cy="57.6494" r="21.8369" fill="#89F4FB" fill-opacity="0.75"/>
<circle cx="21.8369" cy="34.7206" r="21.8369" fill="#89F4FB" fill-opacity="0.75"/>
<circle cx="167.707" cy="47.1677" r="21.8369" fill="#80C3F2" fill-opacity="0.75"/>
<circle cx="59.6147" cy="64.2004" r="21.8369" fill="#57A5C9" fill-opacity="0.74"/>
<ellipse cx="150.028" cy="41.3034" rx="11.7302" ry="12.1994" fill="#98D9FB"/>
<ellipse cx="149.09" cy="48.3417" rx="11.7302" ry="8.91492" fill="#98D9FB"/>
<ellipse cx="148.151" cy="54.9105" rx="11.7302" ry="8.91492" fill="#98D9FB"/>
<ellipse cx="148.151" cy="37.0806" rx="15.4838" ry="9.85333" fill="#98D9FB"/>
<ellipse cx="149.09" cy="33.327" rx="15.4838" ry="9.85333" fill="#98D9FB"/>
<path d="M159.474 37.4031L124.965 59.6477L119.282 29.0197L159.474 37.4031Z" fill="#98D9FB"/>
<ellipse cx="143.459" cy="29.1041" rx="16.4222" ry="5.63048" fill="#98D9FB"/>
<path d="M142.99 9.39746L163.307 35.4384H122.672L142.99 9.39746Z" fill="#98D9FB"/>
<rect x="126.098" y="23.4736" width="30.9676" height="40.3517" fill="#98D9FB"/>
<ellipse cx="134.075" cy="30.5118" rx="13.607" ry="6.09968" fill="#98D9FB"/>
<ellipse cx="142.521" cy="23.9427" rx="13.607" ry="6.09968" fill="#98D9FB"/>
<ellipse cx="135.687" cy="19.5467" rx="13.8749" ry="2.41919" transform="rotate(-50.8884 135.687 19.5467)" fill="#98D9FB"/>
<ellipse cx="119.998" cy="65.7844" rx="8.75445" ry="4.62669" transform="rotate(-22.1822 119.998 65.7844)" fill="#A4D50B"/>
<ellipse cx="0.868959" cy="0.611629" rx="0.868959" ry="0.611629" transform="matrix(0.925988 -0.377553 -0.377552 -0.925988 104.038 76.8752)" fill="#A4D50B"/>
<ellipse cx="1.65211" cy="0.918996" rx="1.65211" ry="0.918996" transform="matrix(0.925988 -0.377553 -0.377552 -0.925988 105.209 75.8499)" fill="#A4D50B"/>
<ellipse cx="2.48807" cy="1.35425" rx="2.48807" ry="1.35425" transform="matrix(0.925988 -0.377553 -0.377552 -0.925988 105.538 75.7195)" fill="#A4D50B"/>
<ellipse cx="3.64758" cy="3.64878" rx="3.64758" ry="3.64878" transform="matrix(0.925988 -0.377553 -0.377552 -0.925988 111.962 73.3372)" fill="#A4D50B"/>
<ellipse cx="4.15615" cy="2.23418" rx="4.15615" ry="2.23418" transform="matrix(0.925988 -0.377553 -0.377552 -0.925988 108.079 74.855)" fill="#A4D50B"/>
<ellipse cx="4.15615" cy="2.23418" rx="4.15615" ry="2.23418" transform="matrix(0.925988 -0.377553 -0.377552 -0.925988 109.956 72.0398)" fill="#A4D50B"/>
<ellipse cx="4.15615" cy="2.23418" rx="4.15615" ry="2.23418" transform="matrix(0.925988 -0.377553 -0.377552 -0.925988 107.14 74.855)" fill="#A4D50B"/>
<ellipse cx="4.15615" cy="2.23418" rx="4.15615" ry="2.23418" transform="matrix(0.925988 -0.377553 -0.377552 -0.925988 109.017 72.978)" fill="#A4D50B"/>
<ellipse cx="4.15615" cy="2.23418" rx="4.15615" ry="2.23418" transform="matrix(0.925988 -0.377553 -0.377552 -0.925988 107.14 75.7935)" fill="#A4D50B"/>
<ellipse cx="1.21346" cy="0.752093" rx="1.21346" ry="0.752093" transform="matrix(0.925988 -0.377553 -0.377552 -0.925988 105.083 76.457)" fill="#A4D50B"/>
<ellipse cx="132.198" cy="62.9694" rx="8.75445" ry="4.62669" transform="rotate(-10.0649 132.198 62.9694)" fill="#A4D50B"/>
<ellipse cx="138.225" cy="62.3367" rx="8.75445" ry="4.06382" transform="rotate(6.85828 138.225 62.3367)" fill="#A4D50B"/>
<ellipse cx="136.214" cy="63.275" rx="8.75445" ry="4.06382" transform="rotate(6.85828 136.214 63.275)" fill="#A4D50B"/>
<ellipse cx="146.536" cy="62.3367" rx="8.75445" ry="4.06382" transform="rotate(6.85828 146.536 62.3367)" fill="#A4D50B"/>
<ellipse cx="140.906" cy="62.3367" rx="8.75445" ry="4.06382" transform="rotate(6.85828 140.906 62.3367)" fill="#A4D50B"/>
<ellipse cx="150.897" cy="61.9487" rx="8.46378" ry="3.7079" transform="rotate(6.85828 150.897 61.9487)" fill="#A4D50B"/>
<ellipse cx="157.066" cy="63.2841" rx="8.11376" ry="3.26602" transform="rotate(6.85828 157.066 63.2841)" fill="#A4D50B"/>
<ellipse cx="162.677" cy="64.4478" rx="8.11376" ry="3.10022" transform="rotate(6.85828 162.677 64.4478)" fill="#A4D50B"/>
<ellipse cx="168.819" cy="66.1715" rx="5.96863" ry="1.64507" transform="rotate(6.85828 168.819 66.1715)" fill="#A4D50B"/>
<ellipse cx="167.88" cy="65.233" rx="5.96863" ry="1.64507" transform="rotate(6.85828 167.88 65.233)" fill="#A4D50B"/>
<ellipse cx="172.541" cy="67.3667" rx="5.96863" ry="0.80275" transform="rotate(6.85828 172.541 67.3667)" fill="#A4D50B"/>
<ellipse cx="169.657" cy="66.2734" rx="5.96863" ry="0.80275" transform="rotate(6.85828 169.657 66.2734)" fill="#A4D50B"/>
<ellipse cx="153.713" cy="62.8869" rx="8.46378" ry="3.7079" transform="rotate(6.85828 153.713 62.8869)" fill="#A4D50B"/>
<ellipse cx="125.902" cy="63.9845" rx="9.49291" ry="4.79614" transform="rotate(-10.0649 125.902 63.9845)" fill="#A4D50B"/>
<path d="M100.761 36.6116C121.406 31.4503 131.122 21.2604 142.99 7.98999C152.804 20.8403 158.943 29.5735 173.488 34.2655" stroke="#252AAE" stroke-width="5" stroke-linecap="round"/>
<path d="M120.099 22.0204C119.815 20.6693 118.489 19.8046 117.138 20.089C115.787 20.3735 114.922 21.6993 115.206 23.0504L120.099 22.0204ZM122.714 58.7101L123.229 61.1565L128.122 60.1264L127.607 57.6801L122.714 58.7101ZM117.653 22.5354L115.206 23.0504L122.714 58.7101L125.16 58.1951L127.607 57.6801L120.099 22.0204L117.653 22.5354Z" fill="#252AAE"/>
<path d="M164.478 21.9964C164.775 20.6482 166.11 19.7965 167.458 20.0942C168.806 20.3919 169.658 21.7261 169.36 23.0744L164.478 21.9964ZM161.384 59.2033L160.845 61.6445L155.962 60.5665L156.501 58.1253L161.384 59.2033ZM166.919 22.5354L169.36 23.0744L161.384 59.2033L158.942 58.6643L156.501 58.1253L164.478 21.9964L166.919 22.5354Z" fill="#252AAE"/>
<path d="M145.336 23.4736C145.336 18.7816 140.175 18.7816 140.175 23.4736C141.081 25.2204 141.494 26.7732 142.385 28.1657M142.385 28.1657C146.666 34.8595 151.143 37.8459 159.412 40.8343C163.617 42.4186 165.711 43.4319 167.858 45.9955L116.714 46.4647C118.192 44.1656 119.565 43.3668 122.345 42.2419C127.506 42.2419 140.644 34.7346 142.385 28.1657Z" stroke="#252AAE" stroke-width="3" stroke-linecap="square"/>
<path d="M179.588 68.9868C148.082 64.9529 128.441 65.0915 103.577 76.9633C108.582 66.5284 113.381 62.6994 125.16 59.1335C154.76 55.2221 168.327 62.1306 179.588 68.9868ZM179.588 68.9868C180.054 69.0465 179.116 68.9253 179.588 68.9868Z" stroke="#65B13B" stroke-width="3" stroke-linecap="square"/>
<path d="M181.156 69.3974L178.545 69.3048L178.916 68.052L181.156 69.3974Z" fill="#65B13B"/>
</svg>
