<svg width="310" height="90" viewBox="0 0 310 90" fill="none" xmlns="http://www.w3.org/2000/svg">
<g filter="url(#filter0_i_165_551)">
<rect width="310" height="90" rx="10" fill="#A5BFCC"/>
</g>
<g filter="url(#filter1_d_165_551)">
<path d="M57.6013 49H55.3613L50.2893 41.336V49H48.0493V37.816H50.2893L55.3613 45.496V37.816H57.6013V49ZM68.0549 44.376C68.0549 44.696 68.0336 44.984 67.9909 45.24H61.5109C61.5643 45.88 61.7883 46.3813 62.1829 46.744C62.5776 47.1067 63.0629 47.288 63.6389 47.288C64.4709 47.288 65.0629 46.9307 65.4149 46.216H67.8309C67.5749 47.0693 67.0843 47.7733 66.3589 48.328C65.6336 48.872 64.7429 49.144 63.6869 49.144C62.8336 49.144 62.0656 48.9573 61.3829 48.584C60.7109 48.2 60.1829 47.6613 59.7989 46.968C59.4256 46.2747 59.2389 45.4747 59.2389 44.568C59.2389 43.6507 59.4256 42.8453 59.7989 42.152C60.1723 41.4587 60.6949 40.9253 61.3669 40.552C62.0389 40.1787 62.8123 39.992 63.6869 39.992C64.5296 39.992 65.2816 40.1733 65.9429 40.536C66.6149 40.8987 67.1323 41.416 67.4949 42.088C67.8683 42.7493 68.0549 43.512 68.0549 44.376ZM65.7349 43.736C65.7243 43.16 65.5163 42.7013 65.1109 42.36C64.7056 42.008 64.2096 41.832 63.6229 41.832C63.0683 41.832 62.5989 42.0027 62.2149 42.344C61.8416 42.6747 61.6123 43.1387 61.5269 43.736H65.7349ZM81.9779 40.136L79.3859 49H76.9699L75.3539 42.808L73.7379 49H71.3059L68.6979 40.136H70.9699L72.5379 46.888L74.2339 40.136H76.6019L78.2659 46.872L79.8339 40.136H81.9779ZM86.4264 44.568C86.4264 43.6507 86.6131 42.8507 86.9864 42.168C87.3598 41.4747 87.8771 40.9413 88.5384 40.568C89.1998 40.184 89.9571 39.992 90.8104 39.992C91.9091 39.992 92.8158 40.2693 93.5304 40.824C94.2558 41.368 94.7411 42.136 94.9864 43.128H92.5704C92.4424 42.744 92.2238 42.4453 91.9144 42.232C91.6158 42.008 91.2424 41.896 90.7944 41.896C90.1544 41.896 89.6478 42.1307 89.2744 42.6C88.9011 43.0587 88.7144 43.7147 88.7144 44.568C88.7144 45.4107 88.9011 46.0667 89.2744 46.536C89.6478 46.9947 90.1544 47.224 90.7944 47.224C91.7011 47.224 92.2931 46.8187 92.5704 46.008H94.9864C94.7411 46.968 94.2558 47.7307 93.5304 48.296C92.8051 48.8613 91.8984 49.144 90.8104 49.144C89.9571 49.144 89.1998 48.9573 88.5384 48.584C87.8771 48.2 87.3598 47.6667 86.9864 46.984C86.6131 46.2907 86.4264 45.4853 86.4264 44.568ZM104.995 40.136V49H102.739V47.88C102.451 48.264 102.073 48.568 101.603 48.792C101.145 49.0053 100.643 49.112 100.099 49.112C99.4061 49.112 98.7928 48.968 98.2594 48.68C97.7261 48.3813 97.3048 47.9493 96.9954 47.384C96.6968 46.808 96.5474 46.1253 96.5474 45.336V40.136H98.7874V45.016C98.7874 45.72 98.9634 46.264 99.3154 46.648C99.6674 47.0213 100.147 47.208 100.755 47.208C101.374 47.208 101.859 47.0213 102.211 46.648C102.563 46.264 102.739 45.72 102.739 45.016V40.136H104.995ZM110.598 49.144C109.872 49.144 109.222 49.016 108.646 48.76C108.07 48.4933 107.611 48.136 107.27 47.688C106.939 47.24 106.758 46.744 106.726 46.2H108.982C109.024 46.5413 109.19 46.824 109.478 47.048C109.776 47.272 110.144 47.384 110.582 47.384C111.008 47.384 111.339 47.2987 111.574 47.128C111.819 46.9573 111.942 46.7387 111.942 46.472C111.942 46.184 111.792 45.9707 111.494 45.832C111.206 45.6827 110.742 45.5227 110.102 45.352C109.44 45.192 108.896 45.0267 108.47 44.856C108.054 44.6853 107.691 44.424 107.382 44.072C107.083 43.72 106.934 43.2453 106.934 42.648C106.934 42.1573 107.072 41.7093 107.35 41.304C107.638 40.8987 108.043 40.5787 108.566 40.344C109.099 40.1093 109.723 39.992 110.438 39.992C111.494 39.992 112.336 40.2587 112.966 40.792C113.595 41.3147 113.942 42.024 114.006 42.92H111.862C111.83 42.568 111.68 42.2907 111.414 42.088C111.158 41.8747 110.811 41.768 110.374 41.768C109.968 41.768 109.654 41.8427 109.43 41.992C109.216 42.1413 109.11 42.3493 109.11 42.616C109.11 42.9147 109.259 43.144 109.558 43.304C109.856 43.4533 110.32 43.608 110.95 43.768C111.59 43.928 112.118 44.0933 112.534 44.264C112.95 44.4347 113.307 44.7013 113.606 45.064C113.915 45.416 114.075 45.8853 114.086 46.472C114.086 46.984 113.942 47.4427 113.654 47.848C113.376 48.2533 112.971 48.5733 112.438 48.808C111.915 49.032 111.302 49.144 110.598 49.144ZM118.532 41.976V46.264C118.532 46.5627 118.602 46.7813 118.74 46.92C118.89 47.048 119.135 47.112 119.476 47.112H120.516V49H119.108C117.22 49 116.276 48.0827 116.276 46.248V41.976H115.22V40.136H116.276V37.944H118.532V40.136H120.516V41.976H118.532ZM126.063 49.144C125.21 49.144 124.442 48.9573 123.759 48.584C123.077 48.2 122.538 47.6613 122.143 46.968C121.759 46.2747 121.567 45.4747 121.567 44.568C121.567 43.6613 121.765 42.8613 122.159 42.168C122.565 41.4747 123.114 40.9413 123.807 40.568C124.501 40.184 125.274 39.992 126.127 39.992C126.981 39.992 127.754 40.184 128.447 40.568C129.141 40.9413 129.685 41.4747 130.079 42.168C130.485 42.8613 130.687 43.6613 130.687 44.568C130.687 45.4747 130.479 46.2747 130.063 46.968C129.658 47.6613 129.103 48.2 128.399 48.584C127.706 48.9573 126.927 49.144 126.063 49.144ZM126.063 47.192C126.469 47.192 126.847 47.096 127.199 46.904C127.562 46.7013 127.85 46.4027 128.063 46.008C128.277 45.6133 128.383 45.1333 128.383 44.568C128.383 43.7253 128.159 43.08 127.711 42.632C127.274 42.1733 126.735 41.944 126.095 41.944C125.455 41.944 124.917 42.1733 124.479 42.632C124.053 43.08 123.839 43.7253 123.839 44.568C123.839 45.4107 124.047 46.0613 124.463 46.52C124.89 46.968 125.423 47.192 126.063 47.192ZM143.339 40.008C144.427 40.008 145.301 40.344 145.963 41.016C146.635 41.6773 146.971 42.6053 146.971 43.8V49H144.731V44.104C144.731 43.4107 144.555 42.8827 144.203 42.52C143.851 42.1467 143.371 41.96 142.763 41.96C142.155 41.96 141.669 42.1467 141.307 42.52C140.955 42.8827 140.779 43.4107 140.779 44.104V49H138.539V44.104C138.539 43.4107 138.363 42.8827 138.011 42.52C137.659 42.1467 137.179 41.96 136.571 41.96C135.952 41.96 135.461 42.1467 135.099 42.52C134.747 42.8827 134.571 43.4107 134.571 44.104V49H132.331V40.136H134.571V41.208C134.859 40.8347 135.227 40.5413 135.675 40.328C136.133 40.1147 136.635 40.008 137.179 40.008C137.872 40.008 138.491 40.1573 139.035 40.456C139.579 40.744 140 41.16 140.299 41.704C140.587 41.192 141.003 40.7813 141.547 40.472C142.101 40.1627 142.699 40.008 143.339 40.008ZM157.336 44.376C157.336 44.696 157.315 44.984 157.272 45.24H150.792C150.846 45.88 151.07 46.3813 151.464 46.744C151.859 47.1067 152.344 47.288 152.92 47.288C153.752 47.288 154.344 46.9307 154.696 46.216H157.112C156.856 47.0693 156.366 47.7733 155.64 48.328C154.915 48.872 154.024 49.144 152.968 49.144C152.115 49.144 151.347 48.9573 150.664 48.584C149.992 48.2 149.464 47.6613 149.08 46.968C148.707 46.2747 148.52 45.4747 148.52 44.568C148.52 43.6507 148.707 42.8453 149.08 42.152C149.454 41.4587 149.976 40.9253 150.648 40.552C151.32 40.1787 152.094 39.992 152.968 39.992C153.811 39.992 154.563 40.1733 155.224 40.536C155.896 40.8987 156.414 41.416 156.776 42.088C157.15 42.7493 157.336 43.512 157.336 44.376ZM155.016 43.736C155.006 43.16 154.798 42.7013 154.392 42.36C153.987 42.008 153.491 41.832 152.904 41.832C152.35 41.832 151.88 42.0027 151.496 42.344C151.123 42.6747 150.894 43.1387 150.808 43.736H155.016ZM161.211 41.512C161.499 41.0427 161.873 40.6747 162.331 40.408C162.801 40.1413 163.334 40.008 163.931 40.008V42.36H163.339C162.635 42.36 162.102 42.5253 161.739 42.856C161.387 43.1867 161.211 43.7627 161.211 44.584V49H158.971V40.136H161.211V41.512ZM168.676 44.536C168.676 43.64 168.852 42.8453 169.204 42.152C169.567 41.4587 170.052 40.9253 170.66 40.552C171.279 40.1787 171.967 39.992 172.724 39.992C173.386 39.992 173.962 40.1253 174.452 40.392C174.954 40.6587 175.354 40.9947 175.652 41.4V40.136H177.908V49H175.652V47.704C175.364 48.12 174.964 48.4667 174.452 48.744C173.951 49.0107 173.37 49.144 172.708 49.144C171.962 49.144 171.279 48.952 170.66 48.568C170.052 48.184 169.567 47.6453 169.204 46.952C168.852 46.248 168.676 45.4427 168.676 44.536ZM175.652 44.568C175.652 44.024 175.546 43.56 175.332 43.176C175.119 42.7813 174.831 42.4827 174.468 42.28C174.106 42.0667 173.716 41.96 173.3 41.96C172.884 41.96 172.5 42.0613 172.148 42.264C171.796 42.4667 171.508 42.7653 171.284 43.16C171.071 43.544 170.964 44.0027 170.964 44.536C170.964 45.0693 171.071 45.5387 171.284 45.944C171.508 46.3387 171.796 46.6427 172.148 46.856C172.511 47.0693 172.895 47.176 173.3 47.176C173.716 47.176 174.106 47.0747 174.468 46.872C174.831 46.6587 175.119 46.36 175.332 45.976C175.546 45.5813 175.652 45.112 175.652 44.568ZM179.52 44.536C179.52 43.64 179.696 42.8453 180.048 42.152C180.411 41.4587 180.902 40.9253 181.52 40.552C182.139 40.1787 182.827 39.992 183.584 39.992C184.16 39.992 184.71 40.12 185.232 40.376C185.755 40.6213 186.171 40.952 186.48 41.368V37.16H188.752V49H186.48V47.688C186.203 48.1253 185.814 48.4773 185.312 48.744C184.811 49.0107 184.23 49.144 183.568 49.144C182.822 49.144 182.139 48.952 181.52 48.568C180.902 48.184 180.411 47.6453 180.048 46.952C179.696 46.248 179.52 45.4427 179.52 44.536ZM186.496 44.568C186.496 44.024 186.39 43.56 186.176 43.176C185.963 42.7813 185.675 42.4827 185.312 42.28C184.95 42.0667 184.56 41.96 184.144 41.96C183.728 41.96 183.344 42.0613 182.992 42.264C182.64 42.4667 182.352 42.7653 182.128 43.16C181.915 43.544 181.808 44.0027 181.808 44.536C181.808 45.0693 181.915 45.5387 182.128 45.944C182.352 46.3387 182.64 46.6427 182.992 46.856C183.355 47.0693 183.739 47.176 184.144 47.176C184.56 47.176 184.95 47.0747 185.312 46.872C185.675 46.6587 185.963 46.36 186.176 45.976C186.39 45.5813 186.496 45.112 186.496 44.568ZM190.364 44.536C190.364 43.64 190.54 42.8453 190.892 42.152C191.255 41.4587 191.745 40.9253 192.364 40.552C192.983 40.1787 193.671 39.992 194.428 39.992C195.004 39.992 195.553 40.12 196.076 40.376C196.599 40.6213 197.015 40.952 197.324 41.368V37.16H199.596V49H197.324V47.688C197.047 48.1253 196.657 48.4773 196.156 48.744C195.655 49.0107 195.073 49.144 194.412 49.144C193.665 49.144 192.983 48.952 192.364 48.568C191.745 48.184 191.255 47.6453 190.892 46.952C190.54 46.248 190.364 45.4427 190.364 44.536ZM197.34 44.568C197.34 44.024 197.233 43.56 197.02 43.176C196.807 42.7813 196.519 42.4827 196.156 42.28C195.793 42.0667 195.404 41.96 194.988 41.96C194.572 41.96 194.188 42.0613 193.836 42.264C193.484 42.4667 193.196 42.7653 192.972 43.16C192.759 43.544 192.652 44.0027 192.652 44.536C192.652 45.0693 192.759 45.5387 192.972 45.944C193.196 46.3387 193.484 46.6427 193.836 46.856C194.199 47.0693 194.583 47.176 194.988 47.176C195.404 47.176 195.793 47.0747 196.156 46.872C196.519 46.6587 196.807 46.36 197.02 45.976C197.233 45.5813 197.34 45.112 197.34 44.568ZM210.024 44.376C210.024 44.696 210.002 44.984 209.96 45.24H203.48C203.533 45.88 203.757 46.3813 204.152 46.744C204.546 47.1067 205.032 47.288 205.608 47.288C206.44 47.288 207.032 46.9307 207.384 46.216H209.8C209.544 47.0693 209.053 47.7733 208.328 48.328C207.602 48.872 206.712 49.144 205.656 49.144C204.802 49.144 204.034 48.9573 203.352 48.584C202.68 48.2 202.152 47.6613 201.768 46.968C201.394 46.2747 201.208 45.4747 201.208 44.568C201.208 43.6507 201.394 42.8453 201.768 42.152C202.141 41.4587 202.664 40.9253 203.336 40.552C204.008 40.1787 204.781 39.992 205.656 39.992C206.498 39.992 207.25 40.1733 207.912 40.536C208.584 40.8987 209.101 41.416 209.464 42.088C209.837 42.7493 210.024 43.512 210.024 44.376ZM207.704 43.736C207.693 43.16 207.485 42.7013 207.08 42.36C206.674 42.008 206.178 41.832 205.592 41.832C205.037 41.832 204.568 42.0027 204.184 42.344C203.81 42.6747 203.581 43.1387 203.496 43.736H207.704ZM211.083 44.536C211.083 43.64 211.259 42.8453 211.611 42.152C211.973 41.4587 212.464 40.9253 213.083 40.552C213.701 40.1787 214.389 39.992 215.147 39.992C215.723 39.992 216.272 40.12 216.795 40.376C217.317 40.6213 217.733 40.952 218.043 41.368V37.16H220.315V49H218.043V47.688C217.765 48.1253 217.376 48.4773 216.875 48.744C216.373 49.0107 215.792 49.144 215.131 49.144C214.384 49.144 213.701 48.952 213.083 48.568C212.464 48.184 211.973 47.6453 211.611 46.952C211.259 46.248 211.083 45.4427 211.083 44.536ZM218.059 44.568C218.059 44.024 217.952 43.56 217.739 43.176C217.525 42.7813 217.237 42.4827 216.875 42.28C216.512 42.0667 216.123 41.96 215.707 41.96C215.291 41.96 214.907 42.0613 214.555 42.264C214.203 42.4667 213.915 42.7653 213.691 43.16C213.477 43.544 213.371 44.0027 213.371 44.536C213.371 45.0693 213.477 45.5387 213.691 45.944C213.915 46.3387 214.203 46.6427 214.555 46.856C214.917 47.0693 215.301 47.176 215.707 47.176C216.123 47.176 216.512 47.0747 216.875 46.872C217.237 46.6587 217.525 46.36 217.739 45.976C217.952 45.5813 218.059 45.112 218.059 44.568ZM225.398 37.64L225.142 45.368H223.254L222.982 37.64H225.398ZM224.246 49.112C223.841 49.112 223.505 48.9893 223.238 48.744C222.982 48.488 222.854 48.1733 222.854 47.8C222.854 47.4267 222.982 47.1173 223.238 46.872C223.505 46.616 223.841 46.488 224.246 46.488C224.641 46.488 224.966 46.616 225.222 46.872C225.478 47.1173 225.606 47.4267 225.606 47.8C225.606 48.1733 225.478 48.488 225.222 48.744C224.966 48.9893 224.641 49.112 224.246 49.112Z" fill="#213555"/>
</g>
<g clip-path="url(#clip0_165_551)">
<g filter="url(#filter2_d_165_551)">
<path d="M240.197 38.7351C240.132 38.7351 240.068 38.7483 240.008 38.774C239.225 39.1102 238.597 39.72 238.238 40.4917C238.184 40.6076 238.179 40.7378 238.223 40.8579C238.267 40.9783 238.355 41.0746 238.472 41.1289C238.536 41.1586 238.603 41.1736 238.674 41.1736C238.86 41.1736 239.031 41.0645 239.109 40.8957C239.368 40.3382 239.822 39.8978 240.387 39.6564C240.504 39.6058 240.595 39.5126 240.643 39.3934C240.691 39.2745 240.689 39.1439 240.639 39.0263C240.563 38.8494 240.389 38.7351 240.197 38.7351Z" fill="#213555"/>
<path d="M247.729 41.9431C247.728 38.4345 244.873 35.5792 241.364 35.5786C237.856 35.5792 235.001 38.4345 235 41.9431C235.001 45.4517 237.856 48.3067 241.364 48.3073C244.873 48.3067 247.728 45.4517 247.729 41.9431ZM241.364 47.0604C239.998 47.0601 238.713 46.5277 237.746 45.5615C236.78 44.594 236.247 43.309 236.247 41.9431C236.247 40.5766 236.78 39.2917 237.746 38.3247C238.714 37.3582 239.999 36.8259 241.364 36.8256C242.73 36.8259 244.015 37.3582 244.983 38.3247C245.949 39.2922 246.481 40.5772 246.482 41.9431C246.481 43.3087 245.949 44.5937 244.983 45.5615C244.015 46.5277 242.73 47.0601 241.364 47.0604Z" fill="#213555"/>
<path d="M251.698 36.7273C249.877 36.7276 248.396 38.209 248.395 40.0297C248.396 41.85 249.877 43.3314 251.698 43.3321C253.518 43.3314 254.999 41.85 255 40.0297C254.999 38.209 253.518 36.7276 251.698 36.7273ZM253.151 41.4835C252.762 41.8712 252.246 42.0848 251.698 42.0851C251.149 42.0848 250.633 41.8712 250.244 41.4832C249.856 41.0941 249.643 40.578 249.642 40.0297C249.643 39.4815 249.856 38.9654 250.244 38.5758C250.633 38.1882 251.149 37.9746 251.698 37.9743C252.246 37.9746 252.762 38.1882 253.151 38.5762C253.539 38.9654 253.753 39.4818 253.753 40.0297C253.753 40.5776 253.539 41.094 253.151 41.4835Z" fill="#213555"/>
<path d="M248.636 43.8174C248.531 44.225 248.391 44.6246 248.22 45.0083C248.85 45.118 249.421 45.4137 249.877 45.8688C250.464 46.4566 250.787 47.2371 250.787 48.0664C250.787 48.8957 250.464 49.6762 249.877 50.264C249.289 50.8509 248.509 51.1742 247.679 51.1745C246.85 51.1742 246.07 50.8509 245.481 50.264C245.051 49.8331 244.762 49.2944 244.639 48.6998C244.262 48.8831 243.868 49.0348 243.465 49.1519C243.96 51.081 245.68 52.4209 247.679 52.4214C250.08 52.4209 252.034 50.4672 252.034 48.0664C252.034 46.0327 250.61 44.2602 248.636 43.8174Z" fill="#213555"/>
</g>
</g>
<defs>
<filter id="filter0_i_165_551" x="0" y="0" width="311" height="91" filterUnits="userSpaceOnUse" color-interpolation-filters="sRGB">
<feFlood flood-opacity="0" result="BackgroundImageFix"/>
<feBlend mode="normal" in="SourceGraphic" in2="BackgroundImageFix" result="shape"/>
<feColorMatrix in="SourceAlpha" type="matrix" values="0 0 0 0 0 0 0 0 0 0 0 0 0 0 0 0 0 0 127 0" result="hardAlpha"/>
<feMorphology radius="2" operator="erode" in="SourceAlpha" result="effect1_innerShadow_165_551"/>
<feOffset dx="1" dy="1"/>
<feGaussianBlur stdDeviation="2"/>
<feComposite in2="hardAlpha" operator="arithmetic" k2="-1" k3="1"/>
<feColorMatrix type="matrix" values="0 0 0 0 0 0 0 0 0 0 0 0 0 0 0 0 0 0 0.1 0"/>
<feBlend mode="normal" in2="shape" result="effect1_innerShadow_165_551"/>
</filter>
<filter id="filter1_d_165_551" x="45.0493" y="37.1599" width="183.557" height="17.9841" filterUnits="userSpaceOnUse" color-interpolation-filters="sRGB">
<feFlood flood-opacity="0" result="BackgroundImageFix"/>
<feColorMatrix in="SourceAlpha" type="matrix" values="0 0 0 0 0 0 0 0 0 0 0 0 0 0 0 0 0 0 127 0" result="hardAlpha"/>
<feOffset dy="3"/>
<feGaussianBlur stdDeviation="1.5"/>
<feComposite in2="hardAlpha" operator="out"/>
<feColorMatrix type="matrix" values="0 0 0 0 0 0 0 0 0 0 0 0 0 0 0 0 0 0 0.2 0"/>
<feBlend mode="normal" in2="BackgroundImageFix" result="effect1_dropShadow_165_551"/>
<feBlend mode="normal" in="SourceGraphic" in2="effect1_dropShadow_165_551" result="shape"/>
</filter>
<filter id="filter2_d_165_551" x="234" y="35.5786" width="22" height="18.8428" filterUnits="userSpaceOnUse" color-interpolation-filters="sRGB">
<feFlood flood-opacity="0" result="BackgroundImageFix"/>
<feColorMatrix in="SourceAlpha" type="matrix" values="0 0 0 0 0 0 0 0 0 0 0 0 0 0 0 0 0 0 127 0" result="hardAlpha"/>
<feOffset dy="1"/>
<feGaussianBlur stdDeviation="0.5"/>
<feComposite in2="hardAlpha" operator="out"/>
<feColorMatrix type="matrix" values="0 0 0 0 0 0 0 0 0 0 0 0 0 0 0 0 0 0 0.15 0"/>
<feBlend mode="normal" in2="BackgroundImageFix" result="effect1_dropShadow_165_551"/>
<feBlend mode="normal" in="SourceGraphic" in2="effect1_dropShadow_165_551" result="shape"/>
</filter>
<clipPath id="clip0_165_551">
<rect width="20" height="20" fill="white" transform="translate(235 34)"/>
</clipPath>
</defs>
</svg>
