<svg width="28" height="28" viewBox="0 0 28 28" fill="none" xmlns="http://www.w3.org/2000/svg">
<path d="M13.9966 0.871582C8.69121 0.871582 4.37329 5.19122 4.37329 10.4966C4.37329 19.8317 13.4548 26.9285 13.4548 26.9285C13.7739 27.1826 14.2261 27.1826 14.5452 26.9285C14.5452 26.9285 23.6284 19.8317 23.6284 10.4966C23.6284 5.19122 19.302 0.871582 13.9966 0.871582ZM13.9966 6.12329C16.4025 6.12329 18.3767 8.09071 18.3767 10.4966C18.3767 12.9025 16.4025 14.875 13.9966 14.875C11.5907 14.875 9.62328 12.9025 9.62329 10.4966C9.6233 8.09071 11.5907 6.12329 13.9966 6.12329Z" fill="#1E252B"/>
</svg>
