<svg width="45" height="45" viewBox="0 0 45 45" fill="none" xmlns="http://www.w3.org/2000/svg">
<path d="M8.4375 8.4375C6.12422 8.4375 4.21875 10.343 4.21875 12.6562V22.1906C3.36094 22.9669 2.8125 24.0778 2.8125 25.3125V37.9688H9.84375V35.1562H35.1562V37.9688H42.1875V25.3125C42.1875 24.0778 41.6391 22.9669 40.7812 22.1906V12.6562C40.7812 10.343 38.8758 8.4375 36.5625 8.4375H8.4375ZM8.4375 11.25H36.5625C37.343 11.25 37.9688 11.8758 37.9688 12.6562V21.0938H35.1562V19.6875C35.1562 17.3742 33.2508 15.4688 30.9375 15.4688H25.3125C24.2339 15.4688 23.2495 15.8906 22.5 16.5656C21.7299 15.8656 20.7282 15.475 19.6875 15.4688H14.0625C11.7492 15.4688 9.84375 17.3742 9.84375 19.6875V21.0938H7.03125V12.6562C7.03125 11.8758 7.65703 11.25 8.4375 11.25ZM14.0625 18.2812H19.6875C20.468 18.2812 21.0938 18.907 21.0938 19.6875V21.0938H12.6562V19.6875C12.6562 18.907 13.282 18.2812 14.0625 18.2812ZM25.3125 18.2812H30.9375C31.718 18.2812 32.3438 18.907 32.3438 19.6875V21.0938H23.9062V19.6875C23.9062 18.907 24.532 18.2812 25.3125 18.2812ZM7.03125 23.9062H37.9688C38.7492 23.9062 39.375 24.532 39.375 25.3125V35.1562H37.9688V32.3438H7.03125V35.1562H5.625V25.3125C5.625 24.532 6.25078 23.9062 7.03125 23.9062Z" fill="black"/>
</svg>
