<svg width="68" height="68" viewBox="0 0 68 68" fill="none" xmlns="http://www.w3.org/2000/svg">
<g clip-path="url(#clip0_26_138)">
<path d="M38.7034 19.2289H49.3553V7.60864H38.7034" fill="#E4E4E4"/>
<path d="M1.62915 19.2289H12.2811V7.60864H1.62915" fill="#E4E4E4"/>
<path d="M4.81456 7.49365H1.62866V19.1748H4.81456V7.49365Z" fill="#7E99A3"/>
<path d="M49.4169 7.49365H46.231V19.1748H49.4169V7.49365Z" fill="#7E99A3"/>
<path d="M38.7967 35.1043V7.49365H12.248V42.5378H33.4869V35.1043H38.7967Z" fill="#7E99A3"/>
<path d="M33.4871 39.3516H12.2483V42.5375H33.4871V39.3516Z" fill="#E6E7E8"/>
<path d="M19.6816 7.49365V9.0866C19.6816 12.3123 22.2966 14.9273 25.5223 14.9273C28.7481 14.9273 31.363 12.3123 31.363 9.0866V7.49365" fill="#E6E7E8"/>
<path d="M58.9743 35.1045H33.4871V39.3522H58.9743V35.1045Z" fill="#E6E7E8"/>
<path d="M38.7965 21.2983H12.2483V27.6701H38.7965V21.2983Z" fill="#7E99A3"/>
<path d="M33.4867 66.9621H30.1434C28.4709 66.9621 27.115 65.6062 27.115 63.9337V49.9712H33.4867V66.9621Z" fill="#E4E4E4"/>
<path d="M54.7045 66.8858H33.4868V39.3518H58.9735V62.6169C58.9735 64.9745 57.0622 66.8858 54.7045 66.8858Z" fill="#7E99A3"/>
<path d="M33.487 49.9714H27.1152V53.1573H33.487V49.9714Z" fill="#E6E7E8"/>
<path d="M38.4033 48.9094H33.4868V39.3518H38.7967V48.5161C38.7965 48.7334 38.6204 48.9094 38.4033 48.9094Z" fill="#E4E4E4"/>
<path d="M54.0568 48.9094H58.9733V39.3518H53.6636V48.5161C53.6637 48.7334 53.8397 48.9094 54.0568 48.9094Z" fill="#E4E4E4"/>
<path d="M45.9021 50.0088H43.0447V66.8859H45.9021V50.0088Z" fill="#E4E4E4"/>
<path d="M49.4167 38.2903H43.0449V41.4762H49.4167V38.2903Z" fill="#7E99A3"/>
<path d="M27.0836 9.68359H23.9019V11.7587H27.0836V9.68359Z" fill="#7E99A3"/>
<path d="M18.6451 38.3193H16.4316V40.3944H18.6451V38.3193Z" fill="black"/>
<path d="M21.8268 38.3193H19.7517V40.3944H21.8268V38.3193Z" fill="black"/>
<path d="M25.0087 38.3193H22.9336V40.3944H25.0087V38.3193Z" fill="black"/>
<path d="M28.0519 38.3193H25.9768V40.3944H28.0519V38.3193Z" fill="black"/>
<path d="M31.3719 38.3193H29.2969V40.3944H31.3719V38.3193Z" fill="black"/>
<path d="M50.4534 42.513H42.0066V37.2522H50.4534V42.513ZM44.0816 40.438H48.3784V39.3273H44.0816V40.438Z" fill="black"/>
<path d="M50.4621 6.50171H0.522461V20.197H11.2105V43.5751H31.3631V41.5H13.2855V40.3943H15.4628V38.3193H13.2855V28.6357H37.7589V32.9801H39.834V20.197H50.462L50.4621 6.50171ZM20.7191 8.53095H30.3254V9.08637C30.3254 11.7348 28.1707 13.8895 25.5222 13.8895C22.8738 13.8895 20.7191 11.7348 20.7191 9.08637V8.53095ZM18.644 8.53095V9.08637C18.644 12.879 21.7297 15.9646 25.5222 15.9646C29.3148 15.9646 32.4005 12.879 32.4005 9.08637V8.53095H37.7589V20.3354H13.2855V8.53095H18.644ZM5.7793 18.122V15.9085H3.70424V18.122H2.59752V8.57677H3.70424V14.9402H5.7793V8.57677H11.2105V18.122H5.7793ZM13.2855 26.5606V22.4105H37.7589V26.5606H13.2855ZM48.3871 18.122H47.2803V15.9085H45.2053V18.122H39.8341V8.57677H45.2053V14.9402H47.2803V8.57677H48.3871V18.122Z" fill="black"/>
<path d="M32.4493 34.0667V63.5963C32.4493 64.8199 31.5381 65.8631 30.4181 65.9217C29.8215 65.9522 29.254 65.7446 28.8225 65.3352C28.3904 64.9253 28.1527 64.3716 28.1527 63.7765V54.2281H31.3715V52.153H28.1527V51.0088H31.3629V48.9338H26.0776V63.7765C26.0776 64.9297 26.5575 66.0464 27.3942 66.8403C28.1872 67.5928 29.2107 68 30.2975 68C30.3005 68 30.3037 67.9998 30.3068 67.9998V67.9999L44.1044 67.9234L44.0927 65.8484L33.8999 65.9048C34.2958 65.2326 34.5244 64.4417 34.5244 63.5963V40.3944H40.9167V38.3193H34.5244V36.1416H57.9358V38.3193H51.5687V40.3944H57.9358V62.3879C57.9358 64.3381 56.3493 65.9247 54.3992 65.9247H47.2678V49.9956H44.1064V52.0707H45.1928V67.9998H54.3992C57.4934 67.9998 60.0109 65.4823 60.0109 62.3879V34.0667H32.4493Z" fill="black"/>
<path d="M35.6106 49.9468V47.8717C36.7951 47.8717 37.7588 46.9079 37.7588 45.7233V41.4756H39.8339V45.7233C39.8339 48.0521 37.9393 49.9468 35.6106 49.9468Z" fill="black"/>
<path d="M56.8495 49.9468C54.5208 49.9468 52.6262 48.0521 52.6262 45.7233V41.4756H54.7013V45.7233C54.7013 46.9079 55.6651 47.8717 56.8495 47.8717V49.9468Z" fill="black"/>
<path d="M47.2809 43.5762H45.2058V47.8647H47.2809V43.5762Z" fill="#7E99A3"/>
<path d="M9.09927 33.0626H6.88596V30.8491H4.8109V33.0626H2.73584V35.1376H4.8109V37.2127H6.88596V35.1376H9.09927V33.0626Z" fill="#999999"/>
<path d="M10.2059 28.7739H8.13086V30.849H10.2059V28.7739Z" fill="#FFE77C"/>
<path d="M3.70421 38.3191H1.62915V40.3941H3.70421V38.3191Z" fill="#FFE77C"/>
<path d="M67.4774 56.3031H65.4023V54.228H63.3273V56.3031H60.9756V58.3781H63.3273V60.4532H65.4023V58.3781H67.4774V56.3031Z" fill="#999999"/>
<path d="M65.4025 2.21345H63.3274V0H61.2523V2.21345H58.9006V4.28851H61.2523V6.50182H63.3274V4.28851H65.4025V2.21345Z" fill="#999999"/>
<path d="M51.5688 27.8058H49.3554V25.4541H47.2804V27.8058H45.2053V29.8809H47.2804V31.9559H49.3554V29.8809H51.5688V27.8058Z" fill="#FFE77C"/>
<path d="M18.6447 57.41H16.4314V55.335H14.3563V57.41H12.2812V59.4851H14.3563V61.6984H16.4314V59.4851H18.6447V57.41Z" fill="#FFE77C"/>
<path d="M65.4029 48.9712H63.3279V51.0462H65.4029V48.9712Z" fill="#FFE77C"/>
<path d="M66.3712 63.7734H64.2961V65.8485H66.3712V63.7734Z" fill="#FFE77C"/>
<path d="M52.6761 3.18188H50.4626V5.25694H52.6761V3.18188Z" fill="#999999"/>
<path d="M54.7508 5.53345H52.6758V7.60851H54.7508V5.53345Z" fill="#FFE77C"/>
<path d="M65.4027 10.6519H63.3276V12.7269H65.4027V10.6519Z" fill="#FFE77C"/>
<path d="M55.8575 30.8491H53.644V32.9242H55.8575V30.8491Z" fill="#999999"/>
<path d="M64.296 25.4541H62.2209V27.5292H64.296V25.4541Z" fill="#999999"/>
<path d="M14.3566 0.138428H12.2815V2.21349H14.3566V0.138428Z" fill="#999999"/>
<path d="M20.7201 3.18188H18.645V5.25694H20.7201V3.18188Z" fill="#999999"/>
<path d="M9.09944 60.73H6.88599V62.805H9.09944V60.73Z" fill="#999999"/>
<path d="M16.4315 64.8801H14.3564V66.9552H16.4315V64.8801Z" fill="#999999"/>
<path d="M22.9334 48.9712H20.72V51.0462H22.9334V48.9712Z" fill="#999999"/>
</g>
<defs>
<clipPath id="clip0_26_138">
<rect width="68" height="68" fill="white"/>
</clipPath>
</defs>
</svg>
