<svg width="43" height="43" viewBox="0 0 43 43" fill="none" xmlns="http://www.w3.org/2000/svg">
<path d="M39.4167 23.2917V26.875C39.4167 27.3502 39.2279 27.8059 38.8919 28.1419C38.5559 28.4779 38.1002 28.6667 37.625 28.6667H34.0417C33.5665 28.6667 33.1108 28.4779 32.7748 28.1419C32.4388 27.8059 32.25 27.3502 32.25 26.875V23.2917C32.25 22.8165 32.4388 22.3608 32.7748 22.0248C33.1108 21.6888 33.5665 21.5 34.0417 21.5H37.625C38.1002 21.5 38.5559 21.6888 38.8919 22.0248C39.2279 22.3608 39.4167 22.8165 39.4167 23.2917ZM37.625 10.75H34.0417C33.5665 10.75 33.1108 10.9388 32.7748 11.2748C32.4388 11.6108 32.25 12.0665 32.25 12.5417V16.125C32.25 16.6002 32.4388 17.0559 32.7748 17.3919C33.1108 17.7279 33.5665 17.9167 34.0417 17.9167H37.625C38.1002 17.9167 38.5559 17.7279 38.8919 17.3919C39.2279 17.0559 39.4167 16.6002 39.4167 16.125V12.5417C39.4167 12.0665 39.2279 11.6108 38.8919 11.2748C38.5559 10.9388 38.1002 10.75 37.625 10.75Z" fill="#213555"/>
<path d="M32.2499 3.58325H7.16659C5.18756 3.58325 3.58325 5.18756 3.58325 7.16659V35.8333C3.58325 37.8123 5.18756 39.4166 7.16659 39.4166H32.2499C34.2289 39.4166 35.8333 37.8123 35.8333 35.8333V7.16659C35.8333 5.18756 34.2289 3.58325 32.2499 3.58325Z" fill="#7E99A3"/>
<path d="M24.0084 21.1417C24.7062 20.2114 25.0834 19.0797 25.0834 17.9167C25.0834 16.4912 24.5171 15.1241 23.5091 14.116C22.5011 13.108 21.134 12.5417 19.7084 12.5417C18.2829 12.5417 16.9157 13.108 15.9077 14.116C14.8997 15.1241 14.3334 16.4912 14.3334 17.9167C14.3334 19.0797 14.7106 20.2114 15.4084 21.1417C14.5183 21.8093 13.7959 22.6749 13.2984 23.67C12.8008 24.6652 12.5417 25.7625 12.5417 26.8751V28.6667C12.5417 29.1419 12.7305 29.5976 13.0665 29.9336C13.4025 30.2697 13.8582 30.4584 14.3334 30.4584H25.0834C25.5586 30.4584 26.0143 30.2697 26.3503 29.9336C26.6863 29.5976 26.8751 29.1419 26.8751 28.6667V26.8751C26.8751 25.7625 26.616 24.6652 26.1185 23.67C25.6209 22.6749 24.8985 21.8093 24.0084 21.1417Z" fill="#213555"/>
</svg>
