<svg width="80" height="80" viewBox="0 0 80 80" fill="none" xmlns="http://www.w3.org/2000/svg">
<path d="M57.5 45H22.5V72.5H57.5V45Z" fill="#30DD75" fill-opacity="0.55"/>
<path d="M68.0518 30.476L42.5 22.2803V20C42.5 18.6183 41.3817 17.5 40 17.5C37.9323 17.5 36.25 15.8178 36.25 13.75C36.25 11.6823 37.9323 10 40 10C42.0677 10 43.75 11.6823 43.75 13.75C43.75 15.1318 44.8683 16.25 46.25 16.25C47.6317 16.25 48.75 15.1318 48.75 13.75C48.75 8.92575 44.8242 5 40 5C35.1758 5 31.25 8.92575 31.25 13.75C31.25 17.7075 33.8892 21.0573 37.5 22.1363V22.2805L11.9508 30.4763C7.793 31.8043 5 35.6325 5 40.0003C5 45.5155 9.48475 50.0003 15 50.0003H20V72.5003C20 73.882 21.1182 75.0003 22.5 75.0003H57.5C58.8817 75.0003 60 73.882 60 72.5003V50.0003H65C70.5153 50.0003 75 45.5155 75 40.0003C75 35.6325 72.207 31.8043 68.0518 30.476ZM55 70H52.5V67.5C52.5 66.1183 51.3817 65 50 65C48.6183 65 47.5 66.1183 47.5 67.5V70H42.5V67.5C42.5 66.1183 41.3817 65 40 65C38.6183 65 37.5 66.1183 37.5 67.5V70H32.5V67.5C32.5 66.1183 31.3818 65 30 65C28.6182 65 27.5 66.1183 27.5 67.5V70H25V42.5C25 41.1205 26.1205 40 27.5 40H52.5C53.8795 40 55 41.1205 55 42.5V70ZM65 45H60V42.5C60 38.3643 56.6357 35 52.5 35H27.5C23.3643 35 20 38.3643 20 42.5V45H15C12.2438 45 10 42.7563 10 40C10 37.815 11.3965 35.9033 13.4765 35.2368L40 26.7293L66.526 35.2368C68.6037 35.9033 70 37.8148 70 40C70 42.7563 67.7562 45 65 45Z" fill="#5E5E5E"/>
</svg>
