<svg width="30" height="30" viewBox="0 0 30 30" fill="none" xmlns="http://www.w3.org/2000/svg">
<path d="M14.9932 0.5C15.6722 0.5 16.2674 0.68129 16.793 1.04102V1.04199L28.332 8.99121L28.3379 8.99609C28.6592 9.21029 28.9161 9.47269 29.1123 9.78613L29.1924 9.92285L29.1934 9.9248C29.3991 10.2982 29.4999 10.6877 29.5 11.1006V28.0498C29.5 28.4159 29.3577 28.7418 29.0225 29.0469C28.6869 29.3522 28.3063 29.4999 27.8574 29.5H20.6055C20.2731 29.5 20.0113 29.4138 19.7969 29.252L19.708 29.1777C19.48 28.9691 19.3741 28.7286 19.374 28.4248V19.125C19.374 18.6112 19.2015 18.1584 18.8672 17.7881L18.7139 17.6338C18.2805 17.2394 17.745 17.0498 17.1426 17.0498H12.8574C12.2556 17.0498 11.7212 17.2395 11.2891 17.6338C10.8527 18.0293 10.626 18.537 10.626 19.125V28.4268C10.6259 28.7309 10.5198 28.9704 10.292 29.1777C10.0616 29.3874 9.77461 29.5 9.39648 29.5H2.14258C1.69367 29.4999 1.31312 29.3522 0.977539 29.0469C0.64233 28.7418 0.5 28.4159 0.5 28.0498V11.1006C0.500079 10.6877 0.600891 10.2982 0.806641 9.9248C0.987159 9.59724 1.22598 9.31999 1.52832 9.0918L1.66211 8.99707L1.66797 8.99316L13.207 1.04199L13.209 1.04004C13.7247 0.681791 14.3139 0.500073 14.9932 0.5Z" fill="#213555" stroke="black"/>
</svg>
