<svg width="64" height="17" viewBox="0 0 64 17" fill="none" xmlns="http://www.w3.org/2000/svg">
<rect width="64" height="17" rx="8.5" fill="#999999" fill-opacity="0.4"/>
<path d="M12.344 5.424V11H11.616V5.424H12.344ZM15.7208 6.536C16.2541 6.536 16.6861 6.69867 17.0168 7.024C17.3474 7.344 17.5128 7.808 17.5128 8.416V11H16.7928V8.52C16.7928 8.08267 16.6834 7.74933 16.4648 7.52C16.2461 7.28533 15.9474 7.168 15.5688 7.168C15.1848 7.168 14.8781 7.288 14.6488 7.528C14.4248 7.768 14.3128 8.11733 14.3128 8.576V11H13.5848V6.616H14.3128V7.24C14.4568 7.016 14.6514 6.84267 14.8968 6.72C15.1474 6.59733 15.4221 6.536 15.7208 6.536ZM24.5628 7.056C24.5628 7.52 24.4028 7.90667 24.0828 8.216C23.7681 8.52 23.2854 8.672 22.6348 8.672H21.5628V11H20.8348V5.424H22.6348C23.2641 5.424 23.7414 5.576 24.0668 5.88C24.3974 6.184 24.5628 6.576 24.5628 7.056ZM22.6348 8.072C23.0401 8.072 23.3388 7.984 23.5308 7.808C23.7228 7.632 23.8188 7.38133 23.8188 7.056C23.8188 6.368 23.4241 6.024 22.6348 6.024H21.5628V8.072H22.6348ZM26.1956 7.328C26.3236 7.07733 26.5049 6.88267 26.7396 6.744C26.9796 6.60533 27.2702 6.536 27.6116 6.536V7.288H27.4196C26.6036 7.288 26.1956 7.73067 26.1956 8.616V11H25.4676V6.616H26.1956V7.328ZM30.3639 11.072C29.9533 11.072 29.5799 10.9787 29.2439 10.792C28.9133 10.6053 28.6519 10.3413 28.4599 10C28.2733 9.65333 28.1799 9.25333 28.1799 8.8C28.1799 8.352 28.2759 7.95733 28.4679 7.616C28.6653 7.26933 28.9319 7.00533 29.2679 6.824C29.6039 6.63733 29.9799 6.544 30.3959 6.544C30.8119 6.544 31.1879 6.63733 31.5239 6.824C31.8599 7.00533 32.1239 7.26667 32.3159 7.608C32.5133 7.94933 32.6119 8.34667 32.6119 8.8C32.6119 9.25333 32.5106 9.65333 32.3079 10C32.1106 10.3413 31.8413 10.6053 31.4999 10.792C31.1586 10.9787 30.7799 11.072 30.3639 11.072ZM30.3639 10.432C30.6253 10.432 30.8706 10.3707 31.0999 10.248C31.3293 10.1253 31.5133 9.94133 31.6519 9.696C31.7959 9.45067 31.8679 9.152 31.8679 8.8C31.8679 8.448 31.7986 8.14933 31.6599 7.904C31.5213 7.65867 31.3399 7.47733 31.1159 7.36C30.8919 7.23733 30.6493 7.176 30.3879 7.176C30.1213 7.176 29.8759 7.23733 29.6519 7.36C29.4333 7.47733 29.2573 7.65867 29.1239 7.904C28.9906 8.14933 28.9239 8.448 28.9239 8.8C28.9239 9.15733 28.9879 9.45867 29.1159 9.704C29.2493 9.94933 29.4253 10.1333 29.6439 10.256C29.8626 10.3733 30.1026 10.432 30.3639 10.432ZM35.3771 6.544C35.7558 6.544 36.0865 6.62667 36.3691 6.792C36.6571 6.95733 36.8705 7.16533 37.0091 7.416V6.616H37.7451V11.096C37.7451 11.496 37.6598 11.8507 37.4891 12.16C37.3185 12.4747 37.0731 12.72 36.7531 12.896C36.4385 13.072 36.0705 13.16 35.6491 13.16C35.0731 13.16 34.5931 13.024 34.2091 12.752C33.8251 12.48 33.5985 12.1093 33.5291 11.64H34.2491C34.3291 11.9067 34.4945 12.12 34.7451 12.28C34.9958 12.4453 35.2971 12.528 35.6491 12.528C36.0491 12.528 36.3745 12.4027 36.6251 12.152C36.8811 11.9013 37.0091 11.5493 37.0091 11.096V10.176C36.8651 10.432 36.6518 10.6453 36.3691 10.816C36.0865 10.9867 35.7558 11.072 35.3771 11.072C34.9878 11.072 34.6331 10.976 34.3131 10.784C33.9985 10.592 33.7505 10.3227 33.5691 9.976C33.3878 9.62933 33.2971 9.23467 33.2971 8.792C33.2971 8.344 33.3878 7.952 33.5691 7.616C33.7505 7.27467 33.9985 7.01067 34.3131 6.824C34.6331 6.63733 34.9878 6.544 35.3771 6.544ZM37.0091 8.8C37.0091 8.46933 36.9425 8.18133 36.8091 7.936C36.6758 7.69067 36.4945 7.504 36.2651 7.376C36.0411 7.24267 35.7931 7.176 35.5211 7.176C35.2491 7.176 35.0011 7.24 34.7771 7.368C34.5531 7.496 34.3745 7.68267 34.2411 7.928C34.1078 8.17333 34.0411 8.46133 34.0411 8.792C34.0411 9.128 34.1078 9.42133 34.2411 9.672C34.3745 9.91733 34.5531 10.1067 34.7771 10.24C35.0011 10.368 35.2491 10.432 35.5211 10.432C35.7931 10.432 36.0411 10.368 36.2651 10.24C36.4945 10.1067 36.6758 9.91733 36.8091 9.672C36.9425 9.42133 37.0091 9.13067 37.0091 8.8ZM39.7034 7.328C39.8314 7.07733 40.0127 6.88267 40.2474 6.744C40.4874 6.60533 40.778 6.536 41.1194 6.536V7.288H40.9274C40.1114 7.288 39.7034 7.73067 39.7034 8.616V11H38.9754V6.616H39.7034V7.328ZM45.9598 8.64C45.9598 8.77867 45.9518 8.92533 45.9358 9.08H42.4318C42.4584 9.512 42.6051 9.85067 42.8718 10.096C43.1438 10.336 43.4718 10.456 43.8558 10.456C44.1704 10.456 44.4318 10.384 44.6398 10.24C44.8531 10.0907 45.0024 9.89333 45.0878 9.648H45.8718C45.7544 10.0693 45.5198 10.4133 45.1678 10.68C44.8158 10.9413 44.3784 11.072 43.8558 11.072C43.4398 11.072 43.0664 10.9787 42.7358 10.792C42.4104 10.6053 42.1544 10.3413 41.9678 10C41.7811 9.65333 41.6878 9.25333 41.6878 8.8C41.6878 8.34667 41.7784 7.94933 41.9598 7.608C42.1411 7.26667 42.3944 7.00533 42.7198 6.824C43.0504 6.63733 43.4291 6.544 43.8558 6.544C44.2718 6.544 44.6398 6.63467 44.9598 6.816C45.2798 6.99733 45.5251 7.248 45.6958 7.568C45.8718 7.88267 45.9598 8.24 45.9598 8.64ZM45.2078 8.488C45.2078 8.21067 45.1464 7.97333 45.0238 7.776C44.9011 7.57333 44.7331 7.42133 44.5198 7.32C44.3118 7.21333 44.0798 7.16 43.8238 7.16C43.4558 7.16 43.1411 7.27733 42.8798 7.512C42.6238 7.74667 42.4771 8.072 42.4398 8.488H45.2078ZM48.4727 11.072C48.1367 11.072 47.8354 11.016 47.5687 10.904C47.302 10.7867 47.0914 10.6267 46.9367 10.424C46.782 10.216 46.6967 9.97867 46.6807 9.712H47.4327C47.454 9.93067 47.5554 10.1093 47.7367 10.248C47.9234 10.3867 48.166 10.456 48.4647 10.456C48.742 10.456 48.9607 10.3947 49.1207 10.272C49.2807 10.1493 49.3607 9.99467 49.3607 9.808C49.3607 9.616 49.2754 9.47467 49.1047 9.384C48.934 9.288 48.67 9.19467 48.3127 9.104C47.9874 9.01867 47.7207 8.93333 47.5127 8.848C47.31 8.75733 47.134 8.62667 46.9847 8.456C46.8407 8.28 46.7687 8.05067 46.7687 7.768C46.7687 7.544 46.8354 7.33867 46.9687 7.152C47.102 6.96533 47.2914 6.81867 47.5367 6.712C47.782 6.6 48.062 6.544 48.3767 6.544C48.862 6.544 49.254 6.66667 49.5527 6.912C49.8514 7.15733 50.0114 7.49333 50.0327 7.92H49.3047C49.2887 7.69067 49.1954 7.50667 49.0247 7.368C48.8594 7.22933 48.6354 7.16 48.3527 7.16C48.0914 7.16 47.8834 7.216 47.7287 7.328C47.574 7.44 47.4967 7.58667 47.4967 7.768C47.4967 7.912 47.542 8.032 47.6327 8.128C47.7287 8.21867 47.846 8.29333 47.9847 8.352C48.1287 8.40533 48.326 8.46667 48.5767 8.536C48.8914 8.62133 49.1474 8.70667 49.3447 8.792C49.542 8.872 49.71 8.99467 49.8487 9.16C49.9927 9.32533 50.0674 9.54133 50.0727 9.808C50.0727 10.048 50.006 10.264 49.8727 10.456C49.7394 10.648 49.55 10.8 49.3047 10.912C49.0647 11.0187 48.7874 11.072 48.4727 11.072ZM52.6524 11.072C52.3164 11.072 52.015 11.016 51.7484 10.904C51.4817 10.7867 51.271 10.6267 51.1164 10.424C50.9617 10.216 50.8764 9.97867 50.8604 9.712H51.6124C51.6337 9.93067 51.735 10.1093 51.9164 10.248C52.103 10.3867 52.3457 10.456 52.6444 10.456C52.9217 10.456 53.1404 10.3947 53.3004 10.272C53.4604 10.1493 53.5404 9.99467 53.5404 9.808C53.5404 9.616 53.455 9.47467 53.2844 9.384C53.1137 9.288 52.8497 9.19467 52.4924 9.104C52.167 9.01867 51.9004 8.93333 51.6924 8.848C51.4897 8.75733 51.3137 8.62667 51.1644 8.456C51.0204 8.28 50.9484 8.05067 50.9484 7.768C50.9484 7.544 51.015 7.33867 51.1484 7.152C51.2817 6.96533 51.471 6.81867 51.7164 6.712C51.9617 6.6 52.2417 6.544 52.5564 6.544C53.0417 6.544 53.4337 6.66667 53.7324 6.912C54.031 7.15733 54.191 7.49333 54.2124 7.92H53.4844C53.4684 7.69067 53.375 7.50667 53.2044 7.368C53.039 7.22933 52.815 7.16 52.5324 7.16C52.271 7.16 52.063 7.216 51.9084 7.328C51.7537 7.44 51.6764 7.58667 51.6764 7.768C51.6764 7.912 51.7217 8.032 51.8124 8.128C51.9084 8.21867 52.0257 8.29333 52.1644 8.352C52.3084 8.40533 52.5057 8.46667 52.7564 8.536C53.071 8.62133 53.327 8.70667 53.5244 8.792C53.7217 8.872 53.8897 8.99467 54.0284 9.16C54.1724 9.32533 54.247 9.54133 54.2524 9.808C54.2524 10.048 54.1857 10.264 54.0524 10.456C53.919 10.648 53.7297 10.8 53.4844 10.912C53.2444 11.0187 52.967 11.072 52.6524 11.072Z" fill="black" fill-opacity="0.8"/>
</svg>
