<svg width="72" height="72" viewBox="0 0 72 72" fill="none" xmlns="http://www.w3.org/2000/svg">
<path d="M35.6587 42.5085V40.9102C35.6587 39.9241 34.8515 39.1169 33.8654 39.1169H29.1692C28.183 39.1169 27.376 39.9243 27.376 40.9102V42.5085H35.6587Z" fill="#333E48"/>
<path d="M58.0733 32.6456C58.754 33.1461 58.9014 34.1132 58.4001 34.7948L57.4385 36.1016C56.9373 36.7823 55.9708 36.9288 55.2903 36.4285L51.9513 33.9703C51.2705 33.4689 51.1237 32.5023 51.6246 31.821L52.5856 30.5143C53.0864 29.8337 54.0538 29.6866 54.7348 30.1875L58.0733 32.6456Z" fill="#84D88B"/>
<path d="M1.16138 54.7193C1.16138 55.2832 1.62277 55.7441 2.18583 55.7441H69.8141C70.3774 55.7441 70.8385 55.2831 70.8385 54.7193V53.2678C70.8385 52.7042 70.3774 52.2429 69.8141 52.2429H2.18583C1.62263 52.2429 1.16138 52.7043 1.16138 53.2678V54.7193Z" fill="#A4A9AD"/>
<path d="M36 24.833H9.13441C4.73115 24.833 1.16138 28.4031 1.16138 32.806V52.243H70.8387C70.8387 44.3017 50.8575 24.833 36 24.833ZM35.2743 41.3876H12.39C10.8157 41.3876 9.53997 40.1118 9.53997 38.5379V32.8059C9.53997 31.232 10.8157 29.9563 12.39 29.9563H27.0872C33.0899 29.9563 36.9532 35.2322 37.8935 37.415C37.8962 37.4214 37.8994 37.4273 37.9021 37.434L37.9023 37.4346C38.0449 37.7742 38.124 38.1466 38.124 38.5378C38.124 40.1118 36.8481 41.3876 35.2743 41.3876Z" fill="#E4E4E4"/>
<path d="M44.1995 46.9531H1.16138V52.2429H44.1995C45.6603 52.2429 46.8445 51.0585 46.8445 49.5981C46.8445 48.1376 45.6603 46.9531 44.1995 46.9531Z" fill="#84D88B"/>
<path d="M67.1454 43.0772C67.1454 42.8047 66.8804 42.5835 66.5528 42.5835C66.443 42.5835 66.0774 42.6548 65.7068 42.3148C65.7022 42.31 65.6983 42.3084 65.6933 42.3044C63.9268 40.179 61.7935 37.9994 59.4182 35.9307C58.5392 37.4325 59.0384 39.852 60.7428 41.762C62.5665 43.8055 65.1276 44.5435 66.7098 43.5677C66.7061 43.563 66.7023 43.5585 66.6988 43.5541C66.955 43.4997 67.1454 43.3076 67.1454 43.0772Z" fill="#A4A9AD"/>
<path d="M38.9559 36.9449C38.0346 34.8183 33.8981 28.7948 27.0874 28.7948H12.3901C10.178 28.7948 8.3786 30.5941 8.3786 32.8058V38.5379C8.3786 40.7496 10.178 42.5489 12.3901 42.5489H35.2742C37.4859 42.5489 39.2854 40.7496 39.2854 38.5379C39.2854 38.007 39.1827 37.4904 38.9801 37.002C38.9725 36.9824 38.9643 36.9634 38.9559 36.9449ZM36.5367 39.6553C36.0636 38.6526 35.0457 37.9554 33.8655 37.9554H29.1693C27.7759 37.9554 26.6074 38.9264 26.2978 40.2262H12.3901C11.4589 40.2262 10.7014 39.4688 10.7014 38.538V32.806C10.7014 31.8751 11.459 31.1178 12.3901 31.1178H27.0872C32.2445 31.1178 35.8739 35.6659 36.8257 37.8716C36.8286 37.8781 36.8313 37.8845 36.8344 37.8911C36.9196 38.0963 36.9627 38.3139 36.9627 38.538C36.9627 38.9666 36.8007 39.3572 36.5367 39.6553ZM68.2033 43.6392C68.2702 43.4631 68.3069 43.274 68.3069 43.0768C68.3069 42.164 67.5201 41.4217 66.5527 41.4217C66.528 41.4217 66.4972 41.4228 66.4616 41.4246C64.4512 39.0261 62.0945 36.6856 59.7458 34.677C59.7439 34.6753 59.7421 34.6738 59.7402 34.6724C59.8567 34.2904 59.8901 33.8847 59.8279 33.4775C59.7193 32.7637 59.3404 32.1358 58.7617 31.7104L55.4228 29.2518C54.4698 28.5511 53.2056 28.5723 52.2835 29.2123C50.9251 28.3739 49.5656 27.6166 48.2239 26.9565C43.7924 24.7766 39.6795 23.6711 35.9998 23.6711H13.8192V20.3102C13.8192 17.4342 11.4794 15.0942 8.60331 15.0942H2.92444C2.28291 15.0942 1.76302 15.6141 1.76302 16.2557C1.76302 16.8972 2.28291 17.4171 2.92444 17.4171H8.60345C10.1987 17.4171 11.4964 18.7148 11.4964 20.31V23.671H9.13446C4.09782 23.6714 0 27.7692 0 32.806V52.2429C0 52.2536 0.00140625 52.264 0.00154688 52.2746H0V54.7193C0 55.9248 0.98058 56.9055 2.18588 56.9055H69.8141C71.0194 56.9055 72 55.9248 72 54.7193V52.2429C72.0001 49.8105 70.4804 46.7467 68.2033 43.6392ZM64.5781 42.7864C63.5372 42.592 62.3935 41.8672 61.6092 40.9886C60.7781 40.0571 60.3379 39.0621 60.2034 38.204C61.8225 39.7181 63.2987 41.2697 64.5781 42.7864ZM2.32285 32.806C2.32285 29.05 5.37836 25.9944 9.13446 25.9944H35.9999C42.2149 25.9944 50.4313 29.8299 58.0228 36.2634C57.4655 38.1649 58.1535 40.6048 59.876 42.5353C61.3879 44.2293 63.3343 45.1615 65.0879 45.1613C65.5123 45.1613 65.9249 45.1047 66.318 44.993C68.0023 47.2905 69.1418 49.4141 69.5296 51.0815H47.705C47.8987 50.6255 48.006 50.1241 48.006 49.5982C48.006 47.4992 46.2985 45.7917 44.1995 45.7917H2.32285V32.806ZM2.32285 48.1146H44.1994C45.0174 48.1146 45.683 48.7802 45.683 49.5982C45.683 50.4161 45.0174 51.0815 44.1994 51.0815H2.32285V48.1146ZM69.6773 54.5825H2.32285V53.4044H69.6772V54.5825H69.6773Z" fill="#1E252B"/>
</svg>
