<svg width="41" height="41" viewBox="0 0 41 41" fill="none" xmlns="http://www.w3.org/2000/svg">
<path d="M13 5.5C13 7.5625 16.375 9.25 20.5 9.25C24.625 9.25 28 7.5625 28 5.5V3.625C28 2.5 27.25 1.75 26.125 1.75H14.875C13.75 1.75 13 2.5 13 3.625V5.5Z" stroke="black" stroke-width="2" stroke-linecap="round" stroke-linejoin="round"/>
<path d="M13 5.5C13 9.25 20.5 14.875 20.5 24.25M20.5 24.25V39.25M20.5 24.25C20.5 14.875 28 9.25 28 5.5M9.25 33.625H3.625C2.5 33.625 1.75 32.875 1.75 31.75V11.125C1.75 9.0625 3.25 6.8125 5.3125 6.25L13 3.625" stroke="black" stroke-width="2" stroke-linecap="round" stroke-linejoin="round"/>
<path d="M31.75 14.875V37.375C31.75 38.5 31 39.25 29.875 39.25H11.125C10 39.25 9.25 38.5 9.25 37.375V14.875" stroke="black" stroke-width="2" stroke-linecap="round" stroke-linejoin="round"/>
<path d="M28 3.625L35.6875 6.25C37.75 6.8125 39.25 9.0625 39.25 11.125V31.75C39.25 32.875 38.5 33.625 37.375 33.625H31.75M9.25 26.125L13 22.375M31.75 26.125L28 22.375" stroke="black" stroke-width="2" stroke-linecap="round" stroke-linejoin="round"/>
</svg>
