<svg width="69" height="69" viewBox="0 0 69 69" fill="none" xmlns="http://www.w3.org/2000/svg">
<g clip-path="url(#clip0_46_60)">
<path d="M66.1284 41.1814L65.9978 41.6047H3.00455L2.87194 41.1772L0.132324 42.0321L7.30642 64.9886C7.42017 65.3509 7.67286 65.6541 8.00979 65.8309C8.25817 65.9615 14.2932 69 34.4996 69C54.6777 69 60.6956 66.2416 60.9441 66.1236C61.3063 65.951 61.5801 65.6351 61.698 65.2518L68.8701 42.0279L66.1284 41.1814Z" fill="#E6E9ED"/>
<path d="M67.497 41.6046C67.497 44.7736 52.7235 47.3426 34.4995 47.3426C16.2767 47.3426 1.50317 44.7736 1.50317 41.6046C1.50317 38.4354 16.2768 35.8665 34.4995 35.8665C52.7233 35.8665 67.497 38.4354 67.497 41.6046Z" fill="#5D9CEC"/>
<path d="M34.4994 48.7787C25.607 48.7787 17.2326 48.1746 10.9218 47.0774C7.78856 46.532 5.30798 45.8877 3.54976 45.1653C2.68845 44.8115 0.0668945 43.7333 0.0668945 41.6047C0.0668945 39.4758 2.68845 38.3977 3.54976 38.0439C5.30798 37.3217 7.78856 36.6772 10.9218 36.1339C17.2326 35.0347 25.607 34.4304 34.4994 34.4304C43.3949 34.4304 51.7672 35.0346 58.08 36.1339C61.2134 36.6772 63.694 37.3215 65.4502 38.0439C66.3135 38.3977 68.9331 39.4758 68.9331 41.6047C68.9331 43.7333 66.3135 44.8115 65.4502 45.1653C63.6941 45.8875 61.2134 46.532 58.08 47.0774C51.7672 48.1746 43.3949 48.7787 34.4994 48.7787ZM3.03171 41.6048C3.46755 42.0195 5.32482 43.2851 12.4295 44.4178C18.456 45.3802 26.2935 45.9087 34.4994 45.9087C42.7084 45.9087 50.5458 45.3801 56.5725 44.4178C63.6771 43.2851 65.5343 42.0195 65.9681 41.6048C65.5343 41.1921 63.6771 39.9245 56.5725 38.7916C50.5458 37.8292 42.7084 37.3008 34.4994 37.3008C26.2935 37.3008 18.456 37.8293 12.4295 38.7916C5.32482 39.9245 3.46755 41.192 3.03171 41.6048Z" fill="#CCD1D9"/>
<path d="M54.5848 43.0386H14.4151C13.6212 43.0386 12.979 42.3963 12.979 41.6046C12.979 40.8128 13.6212 40.1707 14.4151 40.1707H54.5848C55.3807 40.1707 56.0207 40.8128 56.0207 41.6046C56.0209 42.3964 55.3809 43.0386 54.5848 43.0386Z" fill="#4A89DC"/>
<path d="M46.3851 0.000244141H41.386C41.386 3.79673 38.2991 6.88593 34.4993 6.88593C30.7026 6.88593 27.6157 3.79686 27.6157 0.000244141H22.6147L5.97363 9.50735L10.7283 22.5838L17.2834 20.2065V41.6258H51.717V20.2065L58.274 22.5838L63.0288 9.50735L46.3851 0.000244141Z" fill="#333E48"/>
<path d="M34.4996 5.44957C31.4947 5.44957 29.05 3.00484 29.05 0H26.1799C26.1799 4.59459 29.905 8.31951 34.4996 8.31951C39.0954 8.31951 42.8223 4.59459 42.8223 0H39.9501C39.9501 3.00497 37.5076 5.44957 34.4996 5.44957Z" fill="#8CC153"/>
</g>
<defs>
<clipPath id="clip0_46_60">
<rect width="69" height="69" fill="white"/>
</clipPath>
</defs>
</svg>
