<svg width="63" height="63" viewBox="0 0 63 63" fill="none" xmlns="http://www.w3.org/2000/svg">
<path d="M44.6255 9.24268H39.375C39.375 13.5839 35.8433 17.1177 31.5001 17.1177C27.1588 17.1177 23.625 13.584 23.625 9.24268H18.3745L0.000244141 19.742L5.25083 34.1798L13.1258 31.5545V61.7421H49.8745V31.5545L57.7494 34.1798L63 19.742L44.6255 9.24268Z" fill="#99774F"/>
<path d="M31.5001 15.8045C27.8818 15.8045 24.9383 12.861 24.9383 9.24268H22.312C22.312 14.3164 26.4265 18.4308 31.5001 18.4308C36.5737 18.4308 40.6882 14.3163 40.6882 9.24268H38.0619C38.0619 12.861 35.1184 15.8045 31.5001 15.8045Z" fill="#E7D78D"/>
<path d="M32.8133 7.82176C11.2917 7.82176 1.3884 5.26083 0.976918 5.15131C0.275159 4.96673 -0.141984 4.24775 0.0444381 3.54599C0.230983 2.8462 0.948001 2.42893 1.64792 2.61351C1.74599 2.64046 11.6916 5.19745 32.8133 5.19745C53.9367 5.19745 61.1715 2.67503 61.2406 2.64808C61.9232 2.40198 62.6749 2.75575 62.921 3.43819C63.1671 4.11879 62.8153 4.87248 62.1328 5.11858C61.8271 5.22822 54.3924 7.82176 32.8133 7.82176Z" fill="#434A54"/>
<path d="M43.3126 11.3748C42.5877 11.3748 41.9995 10.7884 41.9995 10.0636V2.57126C41.9995 1.84636 42.5877 1.25806 43.3126 1.25806C44.0375 1.25806 44.6257 1.84636 44.6257 2.57126V10.0636C44.6257 10.7885 44.0375 11.3748 43.3126 11.3748Z" fill="#F4BE8E"/>
<path d="M19.6877 11.3748C18.9628 11.3748 18.3745 10.7884 18.3745 10.0636V2.57126C18.3745 1.84636 18.9628 1.25806 19.6877 1.25806C20.4125 1.25806 21.0008 1.84636 21.0008 2.57126V10.0636C21.0008 10.7885 20.4125 11.3748 19.6877 11.3748Z" fill="#F4BE8E"/>
</svg>
