<svg width="60" height="60" viewBox="0 0 60 60" fill="none" xmlns="http://www.w3.org/2000/svg">
<g clip-path="url(#clip0_26_74)">
<path d="M36.6006 23.6841H56.526C58.0277 23.6841 59.198 24.9863 59.0379 26.4796L55.7898 56.7954C55.6522 58.0792 54.5689 59.0526 53.2779 59.0526H36.6006V23.6841Z" fill="#99774F"/>
<path d="M46.4209 37.5789V22.4209H51.4736C52.1712 22.4209 52.7367 22.9864 52.7367 23.6841V31.263C52.7367 34.7511 49.909 37.5789 46.4209 37.5789Z" fill="#FFC0CF"/>
<path d="M41.3683 59.0526H5.99992C3.20945 59.0526 0.947266 56.7904 0.947266 53.9999V3.47359C0.947266 2.07836 2.07824 0.947266 3.47359 0.947266H43.8946C45.2898 0.947266 46.4209 2.07824 46.4209 3.47359V53.9999C46.4209 56.7904 44.1588 59.0526 41.3683 59.0526Z" fill="#DBDBDB"/>
<path d="M46.4209 3.47359V11.0526H0.947266V3.47359C0.947266 2.07836 2.07824 0.947266 3.47359 0.947266H43.8946C45.29 0.947266 46.4209 2.07836 46.4209 3.47359Z" fill="#E5E5E5"/>
<path d="M17.9999 14.8421H0.947266V6H17.9999C20.4416 6 22.4209 7.97941 22.4209 10.421C22.4209 12.8627 20.4416 14.8421 17.9999 14.8421ZM31.2631 9.78949C31.2631 8.39426 30.1321 7.26316 28.7368 7.26316C27.3415 7.26316 26.2104 8.39414 26.2104 9.78949C26.2104 11.1847 27.3414 12.3158 28.7368 12.3158C30.132 12.3158 31.2631 11.1847 31.2631 9.78949ZM40.1052 9.78949C40.1052 8.39426 38.9743 7.26316 37.5789 7.26316C36.1837 7.26316 35.0526 8.39414 35.0526 9.78949C35.0526 11.1847 36.1836 12.3158 37.5789 12.3158C38.9741 12.3158 40.1052 11.1847 40.1052 9.78949ZM41.3683 36.3158C41.3683 26.5491 33.4509 18.6316 23.6841 18.6316C13.9173 18.6316 5.99992 26.5491 5.99992 36.3158C5.99992 46.0826 13.9173 54 23.6841 54C33.4509 54 41.3683 46.0826 41.3683 36.3158Z" fill="#9B9B9B"/>
<path d="M7.26309 11.0527H0.947266V6H7.26309H17.9999C20.4416 6 22.4209 7.97941 22.4209 10.421C22.4209 10.6355 22.4048 10.8462 22.3754 11.0525H17.9999L7.26309 11.0527Z" fill="#C1C1C1"/>
<path d="M23.6843 48.9474C16.7081 48.9474 11.0527 43.2919 11.0527 36.3158C11.0527 29.3398 16.7081 23.6843 23.6843 23.6843C30.6604 23.6843 36.3158 29.3398 36.3158 36.3158C36.3158 43.2919 30.6604 48.9474 23.6843 48.9474Z" fill="#7E99A3"/>
<path d="M36.3158 36.3158C36.3158 43.292 30.6604 48.9474 23.6842 48.9474C21.8876 48.9474 20.1789 48.5714 18.6316 47.8953C23.0926 45.946 26.2106 41.4953 26.2106 36.3157C26.2106 31.1362 23.0926 26.6855 18.6316 24.7362C20.1789 24.06 21.8876 23.6841 23.6842 23.6841C30.6603 23.6842 36.3158 29.3395 36.3158 36.3158Z" fill="#A5BFCC"/>
<path d="M22.7368 28.7368C22.7368 28.2135 23.1611 27.7895 23.6842 27.7895C28.3856 27.7895 32.2105 31.6144 32.2105 36.3158C32.2105 36.8392 31.7863 37.2632 31.2632 37.2632C30.74 37.2632 30.3158 36.8392 30.3158 36.3158C30.3158 32.6592 27.341 29.6843 23.6843 29.6843C23.1611 29.6842 22.7368 29.2602 22.7368 28.7368ZM10.1053 36.3158C10.1053 28.8285 16.1967 22.7368 23.6843 22.7368C31.1719 22.7368 37.2633 28.8284 37.2633 36.3158C37.2633 43.8033 31.1719 49.8948 23.6843 49.8948C16.1967 49.8948 10.1053 43.8032 10.1053 36.3158ZM12 36.3158C12 42.7586 17.2414 48 23.6842 48C30.1269 48 35.3684 42.7586 35.3684 36.3158C35.3684 29.8731 30.1269 24.6316 23.6842 24.6316C17.2414 24.6316 12 29.8731 12 36.3158ZM42.3158 36.3158C42.3158 26.0423 33.9578 17.6843 23.6843 17.6843C19.1728 17.6843 14.8199 19.3177 11.427 22.2836C8.06684 25.221 5.87004 29.2596 5.24121 33.6554C5.16715 34.1733 5.52691 34.6532 6.04488 34.7273C6.56262 34.8 7.04273 34.4415 7.1168 33.9236C8.28668 25.7459 15.4091 19.579 23.6843 19.579C32.913 19.579 40.4211 27.0871 40.4211 36.3158C40.4211 45.5446 32.913 53.0527 23.6843 53.0527C14.9378 53.0527 7.60453 46.2266 6.98953 37.5123C6.95273 36.9904 6.49945 36.5981 5.97785 36.634C5.4559 36.6709 5.06273 37.1238 5.09941 37.6458C5.43059 42.3382 7.51078 46.6983 10.9567 49.9228C14.4193 53.1629 18.9395 54.9473 23.6843 54.9473C33.9578 54.9473 42.3158 46.5893 42.3158 36.3158ZM23.6842 44.8422C24.2074 44.8422 24.6315 44.4182 24.6315 43.8948C24.6315 43.3714 24.2073 42.9475 23.6842 42.9475C20.0275 42.9475 17.0527 39.9724 17.0527 36.3159C17.0527 35.7926 16.6284 35.3686 16.1053 35.3686C15.5821 35.3686 15.158 35.7926 15.158 36.3159C15.1579 41.0173 18.9827 44.8422 23.6842 44.8422ZM60 59.0527C60 59.576 59.5758 60 59.0527 60H51.4737C50.9504 60 50.5263 59.576 50.5263 59.0527C50.5263 58.5293 50.9505 58.1053 51.4737 58.1053H53.278C54.0868 58.1053 54.7618 57.4988 54.848 56.6946L58.0961 26.3788C58.1445 25.9275 58.0039 25.4929 57.7005 25.1551C57.3971 24.8174 56.9801 24.6314 56.5261 24.6314H53.6843V31.2629C53.6843 34.947 50.9276 37.999 47.3685 38.4646V54C47.3685 55.5866 46.7495 57.0312 45.7404 58.1053H47.6843C48.2075 58.1053 48.6316 58.5293 48.6316 59.0527C48.6316 59.576 48.2074 60 47.6842 60H12.3158C11.7926 60 11.3685 59.576 11.3685 59.0527C11.3685 58.5293 11.7927 58.1053 12.3158 58.1053H41.3684C43.632 58.1053 45.4737 56.2637 45.4737 54V30C45.4737 29.4766 45.8979 29.0527 46.421 29.0527C46.9443 29.0527 47.3684 29.4766 47.3684 30V36.5479C49.8783 36.099 51.7894 33.9001 51.7894 31.2632V23.6842C51.7894 23.51 51.6477 23.3684 51.4736 23.3684H47.3682V26.2105C47.3682 26.7339 46.944 27.1579 46.4209 27.1579C45.8977 27.1579 45.4736 26.7339 45.4736 26.2105V12H43.8946C43.3713 12 42.9472 11.576 42.9472 11.0527C42.9472 10.5293 43.3714 10.1053 43.8946 10.1053H45.4736V3.47367C45.4736 2.60297 44.7653 1.89469 43.8946 1.89469H3.47367C2.60297 1.89469 1.89469 2.60297 1.89469 3.47367V5.05266H18C20.9602 5.05266 23.3685 7.46086 23.3685 10.4211C23.3685 13.3814 20.9603 15.7896 18 15.7896H1.89469V54C1.89469 56.2637 3.73641 58.1053 6 58.1053H8.52633C9.04957 58.1053 9.47367 58.5293 9.47367 59.0527C9.47367 59.576 9.04957 60 8.52633 60H0.947344C0.424219 60 0 59.576 0 59.0527C0 58.5293 0.424219 58.1053 0.947344 58.1053H1.62809C0.618984 57.0312 0 55.5866 0 54V3.47367C0 1.55836 1.55824 0 3.47367 0H43.8947C45.8101 0 47.3684 1.55836 47.3684 3.47367V21.4737H51.4737C52.3538 21.4737 53.1154 21.9907 53.4708 22.7368H56.5261C57.5103 22.7368 58.4522 23.1567 59.1098 23.8887C59.7677 24.6207 60.0848 25.6018 59.9801 26.5806L56.732 56.8964C56.6855 57.3299 56.5614 57.7373 56.3741 58.1052H59.0527C59.5758 58.1053 60 58.5293 60 59.0527ZM1.89469 6.94734V13.8947H18C19.9154 13.8947 21.4737 12.3363 21.4737 10.421C21.4737 8.5057 19.9154 6.94734 18 6.94734H1.89469ZM28.7368 13.2632C26.8214 13.2632 25.2632 11.7048 25.2632 9.78949C25.2632 7.87418 26.8214 6.31582 28.7368 6.31582C30.6523 6.31582 32.2105 7.87418 32.2105 9.78949C32.2105 11.7048 30.6523 13.2632 28.7368 13.2632ZM28.7368 11.3685C29.6075 11.3685 30.3158 10.6602 30.3158 9.78949C30.3158 8.91879 29.6075 8.21051 28.7368 8.21051C27.8661 8.21051 27.1579 8.91879 27.1579 9.78949C27.1579 10.6602 27.8661 11.3685 28.7368 11.3685ZM4.73684 12H17.3684C17.8916 12 18.3157 11.576 18.3157 11.0527C18.3157 10.5293 17.8915 10.1053 17.3684 10.1053H4.73684C4.21359 10.1053 3.78949 10.5293 3.78949 11.0527C3.78949 11.576 4.21359 12 4.73684 12ZM37.579 13.2632C35.6636 13.2632 34.1053 11.7048 34.1053 9.78949C34.1053 7.87418 35.6636 6.31582 37.579 6.31582C39.4944 6.31582 41.0527 7.87418 41.0527 9.78949C41.0527 11.7048 39.4944 13.2632 37.579 13.2632ZM37.579 11.3685C38.4497 11.3685 39.158 10.6602 39.158 9.78949C39.158 8.91879 38.4497 8.21051 37.579 8.21051C36.7083 8.21051 36 8.91879 36 9.78949C36 10.6602 36.7083 11.3685 37.579 11.3685Z" fill="black"/>
</g>
<defs>
<clipPath id="clip0_26_74">
<rect width="60" height="60" fill="white"/>
</clipPath>
</defs>
</svg>
