<svg width="45" height="45" viewBox="0 0 45 45" fill="none" xmlns="http://www.w3.org/2000/svg">
<path d="M5.3999 9.8999V40.2659C5.3999 41.5889 6.5132 43.1999 7.8839 43.1999H37.7801C39.1472 43.1999 40.4999 41.5889 40.4999 40.2659V9.8999H5.3999ZM22.9139 33.9983C17.6399 33.9983 13.364 29.8637 13.364 24.7616C13.364 19.6595 17.6399 15.5249 22.9139 15.5249C28.1879 15.5249 32.4638 19.6595 32.4638 24.7616C32.4638 29.8646 28.1879 33.9983 22.9139 33.9983ZM37.7801 0.899902H7.8839C6.5132 0.899902 5.3999 1.8296 5.3999 3.1544V8.0999H40.4999V3.1544C40.4999 1.8296 39.1472 0.899902 37.7801 0.899902ZM17.0999 6.2999H7.1999V2.6999H17.0999V6.2999ZM34.3313 6.0479C33.2072 6.0479 32.2991 5.1668 32.2991 4.0787C32.2991 2.9924 33.2072 2.1113 34.3313 2.1113C35.4554 2.1113 36.3662 2.9924 36.3662 4.0787C36.3653 5.1659 35.4554 6.0479 34.3313 6.0479Z" fill="#213555"/>
</svg>
