<svg width="15" height="26" viewBox="0 0 15 26" fill="none" xmlns="http://www.w3.org/2000/svg">
<path d="M14.3672 1.03825C14.1683 0.845034 13.9317 0.691671 13.671 0.587011C13.4103 0.482351 13.1307 0.428467 12.8483 0.428467C12.5659 0.428467 12.2862 0.482351 12.0256 0.587011C11.7649 0.691671 11.5282 0.845034 11.3294 1.03825L0.632805 11.3458C0.432291 11.5374 0.273138 11.7654 0.164528 12.0166C0.0559179 12.2678 0 12.5373 0 12.8094C0 13.0816 0.0559179 13.351 0.164528 13.6022C0.273138 13.8534 0.432291 14.0814 0.632805 14.2731L11.3294 24.5806C11.5282 24.7738 11.7649 24.9272 12.0256 25.0318C12.2862 25.1365 12.5659 25.1904 12.8483 25.1904C13.1307 25.1904 13.4103 25.1365 13.671 25.0318C13.9317 24.9272 14.1683 24.7738 14.3672 24.5806C14.5677 24.3889 14.7269 24.1609 14.8355 23.9097C14.9441 23.6585 15 23.3891 15 23.1169C15 22.8448 14.9441 22.5753 14.8355 22.3241C14.7269 22.0729 14.5677 21.8449 14.3672 21.6533L5.16815 12.8094L14.3672 3.96558C14.5677 3.77394 14.7269 3.54594 14.8355 3.29472C14.9441 3.04351 15 2.77406 15 2.50192C15 2.22978 14.9441 1.96033 14.8355 1.70911C14.7269 1.4579 14.5677 1.2299 14.3672 1.03825Z" fill="#213555"/>
</svg>
