<svg width="26" height="32" viewBox="0 0 26 32" fill="none" xmlns="http://www.w3.org/2000/svg">
<path fill-rule="evenodd" clip-rule="evenodd" d="M1.08829 1.95955C-1.10694e-07 2.99919 0 4.67041 0 8.01639V23.9834C0 27.3294 -1.10694e-07 29.0007 1.08829 30.0403C2.17657 31.0799 3.926 31.0799 7.42857 31.0799H18.5714C22.074 31.0799 23.8234 31.0799 24.9117 30.0403C26 29.0007 26 27.3294 26 23.9834V8.01639C26 4.67041 26 2.99919 24.9117 1.95955C23.8234 0.919922 22.074 0.919922 18.5714 0.919922H7.42857C3.926 0.919922 2.17657 0.919922 1.08829 1.95955ZM7.42857 8.01639C6.93603 8.01639 6.46365 8.20331 6.11537 8.53602C5.76709 8.86873 5.57143 9.31998 5.57143 9.79051C5.57143 10.261 5.76709 10.7123 6.11537 11.045C6.46365 11.3777 6.93603 11.5646 7.42857 11.5646H18.5714C19.064 11.5646 19.5363 11.3777 19.8846 11.045C20.2329 10.7123 20.4286 10.261 20.4286 9.79051C20.4286 9.31998 20.2329 8.86873 19.8846 8.53602C19.5363 8.20331 19.064 8.01639 18.5714 8.01639H7.42857ZM7.42857 15.1129C6.93603 15.1129 6.46365 15.2998 6.11537 15.6325C5.76709 15.9652 5.57143 16.4165 5.57143 16.887C5.57143 17.3575 5.76709 17.8088 6.11537 18.1415C6.46365 18.4742 6.93603 18.6611 7.42857 18.6611H18.5714C19.064 18.6611 19.5363 18.4742 19.8846 18.1415C20.2329 17.8088 20.4286 17.3575 20.4286 16.887C20.4286 16.4165 20.2329 15.9652 19.8846 15.6325C19.5363 15.2998 19.064 15.1129 18.5714 15.1129H7.42857ZM7.42857 22.2093C6.93603 22.2093 6.46365 22.3962 6.11537 22.729C5.76709 23.0617 5.57143 23.5129 5.57143 23.9834C5.57143 24.454 5.76709 24.9052 6.11537 25.2379C6.46365 25.5707 6.93603 25.7576 7.42857 25.7576H14.8571C15.3497 25.7576 15.8221 25.5707 16.1703 25.2379C16.5186 24.9052 16.7143 24.454 16.7143 23.9834C16.7143 23.5129 16.5186 23.0617 16.1703 22.729C15.8221 22.3962 15.3497 22.2093 14.8571 22.2093H7.42857Z" fill="#213555"/>
</svg>
