<svg width="39" height="28" viewBox="0 0 39 28" fill="none" xmlns="http://www.w3.org/2000/svg">
<path d="M38.1819 6.78787V1.82559C38.1819 0.817285 37.3646 0 36.3563 0H1.82559C0.817363 0 0 0.817285 0 1.82559V6.78787H38.1819Z" fill="#F15A29"/>
<path d="M0 11.8787V26.1742C0 27.1825 0.817363 27.9999 1.82559 27.9999H36.3563C37.3646 27.9999 38.1819 27.1825 38.1819 26.1742V11.8787H0ZM9.43362 23.9183H5.09092C4.38806 23.9183 3.81819 23.3484 3.81819 22.6455C3.81819 21.9427 4.38806 21.3728 5.09092 21.3728H9.43362C10.1365 21.3728 10.7064 21.9427 10.7064 22.6455C10.7064 23.3484 10.1365 23.9183 9.43362 23.9183ZM13.7757 19.1455H5.09092C4.38806 19.1455 3.81819 18.5756 3.81819 17.8728C3.81819 17.1699 4.38806 16.6001 5.09092 16.6001H13.7757C14.4786 16.6001 15.0484 17.1699 15.0484 17.8728C15.0484 18.5756 14.4786 19.1455 13.7757 19.1455Z" fill="#F15A29"/>
</svg>
