<svg width="40" height="40" viewBox="0 0 40 40" fill="none" xmlns="http://www.w3.org/2000/svg">
<path d="M37.5 5.83325H2.50004C1.57957 5.83325 0.833374 6.57944 0.833374 7.49992V30.8333C0.833374 31.7537 1.57957 32.4999 2.50004 32.4999H37.5C38.4205 32.4999 39.1667 31.7537 39.1667 30.8333V7.49992C39.1667 6.57944 38.4205 5.83325 37.5 5.83325Z" fill="#4DBE86"/>
<path d="M20 12.5C18.8462 12.5 17.7184 12.8421 16.7591 13.4831C15.7998 14.1241 15.0522 15.0351 14.6107 16.101C14.1692 17.1669 14.0536 18.3398 14.2787 19.4714C14.5038 20.6029 15.0594 21.6423 15.8752 22.4581C16.691 23.2739 17.7304 23.8295 18.8619 24.0546C19.9935 24.2797 21.1664 24.1641 22.2323 23.7226C23.2982 23.2811 24.2092 22.5334 24.8502 21.5742C25.4912 20.6149 25.8333 19.4871 25.8333 18.3333C25.8333 16.7862 25.2187 15.3025 24.1248 14.2085C23.0308 13.1146 21.5471 12.5 20 12.5ZM20 20.8333C19.5055 20.8333 19.0222 20.6867 18.611 20.412C18.1999 20.1373 17.8795 19.7469 17.6903 19.29C17.501 18.8332 17.4515 18.3306 17.548 17.8456C17.6445 17.3607 17.8826 16.9152 18.2322 16.5656C18.5818 16.2159 19.0273 15.9778 19.5122 15.8814C19.9972 15.7849 20.4999 15.8344 20.9567 16.0236C21.4135 16.2129 21.8039 16.5333 22.0786 16.9444C22.3533 17.3555 22.5 17.8389 22.5 18.3333C22.5 18.9964 22.2366 19.6323 21.7677 20.1011C21.2989 20.5699 20.663 20.8333 20 20.8333Z" fill="#B7E4CE"/>
<path d="M35 11.6667H28.3333C28.1123 11.6667 27.9004 11.5789 27.7441 11.4226C27.5878 11.2663 27.5 11.0543 27.5 10.8333C27.5 10.6123 27.5878 10.4004 27.7441 10.2441C27.9004 10.0878 28.1123 10 28.3333 10H35C35.221 10 35.433 10.0878 35.5893 10.2441C35.7455 10.4004 35.8333 10.6123 35.8333 10.8333C35.8333 11.0543 35.7455 11.2663 35.5893 11.4226C35.433 11.5789 35.221 11.6667 35 11.6667Z" fill="#B7E4CE"/>
<path d="M35 29.1667H28.3333C28.1123 29.1667 27.9004 29.0789 27.7441 28.9226C27.5878 28.7663 27.5 28.5543 27.5 28.3333C27.5 28.1123 27.5878 27.9004 27.7441 27.7441C27.9004 27.5878 28.1123 27.5 28.3333 27.5H35C35.221 27.5 35.433 27.5878 35.5893 27.7441C35.7455 27.9004 35.8333 28.1123 35.8333 28.3333C35.8333 28.5543 35.7455 28.7663 35.5893 28.9226C35.433 29.0789 35.221 29.1667 35 29.1667Z" fill="#B7E4CE"/>
<path d="M11.6666 11.6667H4.99996C4.77895 11.6667 4.56698 11.5789 4.4107 11.4226C4.25442 11.2663 4.16663 11.0543 4.16663 10.8333C4.16663 10.6123 4.25442 10.4004 4.4107 10.2441C4.56698 10.0878 4.77895 10 4.99996 10H11.6666C11.8876 10 12.0996 10.0878 12.2559 10.2441C12.4122 10.4004 12.5 10.6123 12.5 10.8333C12.5 11.0543 12.4122 11.2663 12.2559 11.4226C12.0996 11.5789 11.8876 11.6667 11.6666 11.6667Z" fill="#B7E4CE"/>
<path d="M11.6666 29.1667H4.99996C4.77895 29.1667 4.56698 29.0789 4.4107 28.9226C4.25442 28.7663 4.16663 28.5543 4.16663 28.3333C4.16663 28.1123 4.25442 27.9004 4.4107 27.7441C4.56698 27.5878 4.77895 27.5 4.99996 27.5H11.6666C11.8876 27.5 12.0996 27.5878 12.2559 27.7441C12.4122 27.9004 12.5 28.1123 12.5 28.3333C12.5 28.5543 12.4122 28.7663 12.2559 28.9226C12.0996 29.0789 11.8876 29.1667 11.6666 29.1667Z" fill="#B7E4CE"/>
</svg>
