<svg width="34" height="34" viewBox="0 0 34 34" fill="none" xmlns="http://www.w3.org/2000/svg">
<path d="M27.7673 22.9661V26.3661C27.7659 26.967 27.5266 27.5428 27.1017 27.9677C26.6768 28.3926 26.1009 28.6319 25.5001 28.6333H8.50005C7.89917 28.6319 7.32331 28.3926 6.89842 27.9677C6.47353 27.5428 6.23421 26.967 6.23279 26.3661V22.9661C6.23704 21.4643 6.83549 20.0253 7.89739 18.9634C8.95928 17.9015 10.3983 17.3031 11.9001 17.2988H22.1001C23.6018 17.3031 25.0408 17.9015 26.1027 18.9634C27.1646 20.0253 27.7631 21.4643 27.7673 22.9661ZM11.2093 9.80628C11.2097 8.66106 11.5496 7.54166 12.1861 6.58961C12.8226 5.63756 13.7271 4.89563 14.7853 4.45762C15.8434 4.0196 17.0077 3.90518 18.1309 4.12882C19.254 4.35246 20.2857 4.90412 21.0954 5.71404C21.905 6.52396 22.4564 7.55577 22.6797 8.67902C22.9029 9.80226 22.7882 10.9665 22.3498 12.0245C21.9115 13.0825 21.1693 13.9868 20.217 14.623C19.2648 15.2592 18.1453 15.5988 17.0001 15.5988C15.4643 15.5988 13.9914 14.9887 12.9054 13.9027C11.8194 12.8168 11.2093 11.3421 11.2093 9.80628Z" fill="#1E252B"/>
</svg>
