<svg width="28" height="28" viewBox="0 0 28 28" fill="none" xmlns="http://www.w3.org/2000/svg">
<path d="M2.34024 5.29852C2.22254 3.63101 3.63456 2.33325 5.30279 2.33325H8.87377C9.73011 2.33325 10.5025 2.84922 10.8318 3.64132L12.3251 7.23262C12.6888 8.10746 12.4306 9.11793 11.6921 9.70999L10.7613 10.4562C10.3459 10.7892 10.2047 11.3635 10.451 11.8355C11.7168 14.2614 13.5875 16.3202 15.8625 17.8111C16.3427 18.1257 16.977 18.0005 17.3353 17.5518L18.3053 16.3368C18.8961 15.5967 19.9044 15.3381 20.7774 15.7026L24.3613 17.1989C25.1519 17.529 25.6667 18.3029 25.6667 19.161V22.7499C25.6667 24.4216 24.3238 25.778 22.6597 25.6597C12.0192 24.9027 3.09458 15.9852 2.34024 5.29852Z" fill="#1E252B"/>
</svg>
