<svg width="73" height="73" viewBox="0 0 73 73" fill="none" xmlns="http://www.w3.org/2000/svg">
<path d="M21.8086 27.8922C19.5314 30.1782 18.2528 33.2734 18.2528 36.5001C18.2528 39.7268 19.5314 42.822 21.8086 45.108C24.0946 47.3852 27.1898 48.6637 30.4165 48.6637C33.6432 48.6637 36.7384 47.3852 39.0244 45.108L21.8086 27.8922ZM66.8861 54.7501L66.9165 18.2501C66.9165 14.8738 64.2094 12.1667 60.8332 12.1667H12.1665C8.79026 12.1667 6.08318 14.8738 6.08318 18.2501V54.7501C6.08318 58.1263 8.79026 60.8334 12.1665 60.8334H60.8332C64.2094 60.8334 66.8861 58.1263 66.8861 54.7501ZM60.8332 30.4167C60.8332 32.0897 59.4644 33.4584 57.7915 33.4584C56.1186 33.4584 54.7498 32.0897 54.7498 30.4167C54.7498 28.7438 56.1186 27.3751 57.7915 27.3751C59.4644 27.3751 60.8332 28.7438 60.8332 30.4167ZM60.8332 21.2917C60.8332 22.9647 59.4644 24.3334 57.7915 24.3334C56.1186 24.3334 54.7498 22.9647 54.7498 21.2917C54.7498 19.6188 56.1186 18.2501 57.7915 18.2501C59.4644 18.2501 60.8332 19.6188 60.8332 21.2917ZM12.1665 36.5001C12.1665 26.4322 20.3486 18.2501 30.4165 18.2501C40.4844 18.2501 48.6665 26.4322 48.6665 36.5001C48.6665 46.568 40.4844 54.7501 30.4165 54.7501C20.3486 54.7501 12.1665 46.568 12.1665 36.5001Z" fill="#213555"/>
</svg>
