<svg width="73" height="73" viewBox="0 0 73 73" fill="none" xmlns="http://www.w3.org/2000/svg">
<path d="M27.8919 51.1912C30.1779 53.4683 33.2732 54.7469 36.4998 54.7469C39.7265 54.7469 42.8217 53.4683 45.1078 51.1912C47.3849 48.9051 48.6635 45.8099 48.6635 42.5833C48.6635 39.3566 47.3849 36.2614 45.1078 33.9753L27.8919 51.1912ZM54.7498 6.11367L18.2498 6.08325C14.8736 6.08325 12.1665 8.79034 12.1665 12.1666V60.8332C12.1665 64.2095 14.8736 66.9166 18.2498 66.9166H54.7498C58.1261 66.9166 60.8332 64.2095 60.8332 60.8332V12.1666C60.8332 8.79034 58.1261 6.11367 54.7498 6.11367ZM30.4165 12.1666C32.0894 12.1666 33.4582 13.5353 33.4582 15.2083C33.4582 16.8812 32.0894 18.2499 30.4165 18.2499C28.7436 18.2499 27.3748 16.8812 27.3748 15.2083C27.3748 13.5353 28.7436 12.1666 30.4165 12.1666ZM21.2915 12.1666C22.9644 12.1666 24.3332 13.5353 24.3332 15.2083C24.3332 16.8812 22.9644 18.2499 21.2915 18.2499C19.6186 18.2499 18.2498 16.8812 18.2498 15.2083C18.2498 13.5353 19.6186 12.1666 21.2915 12.1666ZM36.4998 60.8332C26.4319 60.8332 18.2498 52.6512 18.2498 42.5833C18.2498 32.5153 26.4319 24.3333 36.4998 24.3333C46.5678 24.3333 54.7498 32.5153 54.7498 42.5833C54.7498 52.6512 46.5678 60.8332 36.4998 60.8332Z" fill="#213555"/>
</svg>
