<svg width="73" height="73" viewBox="0 0 73 73" fill="none" xmlns="http://www.w3.org/2000/svg">
<path d="M51.1914 45.1078C53.4686 42.8218 54.7472 39.7266 54.7472 36.4999C54.7472 33.2732 53.4686 30.178 51.1914 27.892C48.9054 25.6148 45.8102 24.3363 42.5835 24.3363C39.3568 24.3363 36.2616 25.6148 33.9756 27.892L51.1914 45.1078ZM6.11391 18.2499L6.0835 54.7499C6.0835 58.1262 8.79058 60.8333 12.1668 60.8333H60.8335C64.2097 60.8333 66.9168 58.1262 66.9168 54.7499V18.2499C66.9168 14.8737 64.2097 12.1666 60.8335 12.1666H12.1668C8.79058 12.1666 6.11391 14.8737 6.11391 18.2499ZM12.1668 42.5833C12.1668 40.9103 13.5356 39.5416 15.2085 39.5416C16.8814 39.5416 18.2502 40.9103 18.2502 42.5833C18.2502 44.2562 16.8814 45.6249 15.2085 45.6249C13.5356 45.6249 12.1668 44.2562 12.1668 42.5833ZM12.1668 51.7083C12.1668 50.0353 13.5356 48.6666 15.2085 48.6666C16.8814 48.6666 18.2502 50.0353 18.2502 51.7083C18.2502 53.3812 16.8814 54.7499 15.2085 54.7499C13.5356 54.7499 12.1668 53.3812 12.1668 51.7083ZM60.8335 36.4999C60.8335 46.5678 52.6514 54.7499 42.5835 54.7499C32.5156 54.7499 24.3335 46.5678 24.3335 36.4999C24.3335 26.432 32.5156 18.2499 42.5835 18.2499C52.6514 18.2499 60.8335 26.432 60.8335 36.4999Z" fill="#213555"/>
</svg>
