<svg width="73" height="73" viewBox="0 0 73 73" fill="none" xmlns="http://www.w3.org/2000/svg">
<path d="M45.1081 21.8088C42.8221 19.5317 39.7268 18.2531 36.5002 18.2531C33.2735 18.2531 30.1783 19.5317 27.8922 21.8088C25.6151 24.0949 24.3365 27.1901 24.3365 30.4167C24.3365 33.6434 25.6151 36.7386 27.8922 39.0247L45.1081 21.8088ZM18.2502 66.8863L54.7502 66.9167C58.1264 66.9167 60.8335 64.2097 60.8335 60.8334V12.1668C60.8335 8.7905 58.1264 6.08342 54.7502 6.08342H18.2502C14.8739 6.08342 12.1668 8.7905 12.1668 12.1668V60.8334C12.1668 64.2097 14.8739 66.8863 18.2502 66.8863ZM42.5835 60.8334C40.9106 60.8334 39.5418 59.4647 39.5418 57.7917C39.5418 56.1188 40.9106 54.7501 42.5835 54.7501C44.2564 54.7501 45.6252 56.1188 45.6252 57.7917C45.6252 59.4647 44.2564 60.8334 42.5835 60.8334ZM51.7085 60.8334C50.0356 60.8334 48.6668 59.4647 48.6668 57.7917C48.6668 56.1188 50.0356 54.7501 51.7085 54.7501C53.3814 54.7501 54.7502 56.1188 54.7502 57.7917C54.7502 59.4647 53.3814 60.8334 51.7085 60.8334ZM36.5002 12.1668C46.5681 12.1668 54.7502 20.3488 54.7502 30.4167C54.7502 40.4847 46.5681 48.6667 36.5002 48.6667C26.4322 48.6667 18.2502 40.4847 18.2502 30.4167C18.2502 20.3488 26.4322 12.1668 36.5002 12.1668Z" fill="#213555"/>
</svg>
