<svg width="22" height="22" viewBox="0 0 22 22" fill="none" xmlns="http://www.w3.org/2000/svg">
<rect width="22" height="22" rx="11" fill="#309BDD" fill-opacity="0.52"/>
<path d="M16.5263 10.9999C16.5263 14.052 14.052 16.5263 10.9999 16.5263C7.94785 16.5263 5.47363 14.052 5.47363 10.9999C5.47363 7.94785 7.94785 5.47363 10.9999 5.47363C14.052 5.47363 16.5263 7.94785 16.5263 10.9999ZM6.48185 10.9999C6.48185 13.4952 8.50467 15.5181 10.9999 15.5181C13.4952 15.5181 15.5181 13.4952 15.5181 10.9999C15.5181 8.50467 13.4952 6.48185 10.9999 6.48185C8.50467 6.48185 6.48185 8.50467 6.48185 10.9999Z" fill="#1974AC"/>
<path d="M11.0757 7.68433C10.8304 7.68433 10.6316 7.89169 10.6316 8.1475V11.1427C10.6316 11.1427 10.6316 11.2634 10.6879 11.3543C10.7255 11.4313 10.7842 11.4982 10.8613 11.5447L12.9128 12.7801C13.1252 12.908 13.3968 12.8321 13.5194 12.6105C13.642 12.389 13.5693 12.1057 13.3569 11.9778L11.5197 10.8715V8.1475C11.5197 7.8917 11.3209 7.68433 11.0757 7.68433Z" fill="#1974AC"/>
</svg>
