<svg width="45" height="45" viewBox="0 0 45 45" fill="none" xmlns="http://www.w3.org/2000/svg">
<path d="M43.5999 8.83447H1.40568L0.144694 18.1452L0 19.1718L1.03097 19.2803C1.05361 19.2829 3.3194 19.5669 6.36702 21.6885C11.5036 25.2642 14.8646 31.2077 16.7795 35.564L17.0439 36.1654H27.9615L28.2258 35.564C30.1407 31.2077 33.5018 25.2642 38.6383 21.6885C41.6859 19.567 43.9518 19.2829 43.9689 19.2809L44.9999 19.1724L43.5999 8.83447ZM41.8415 10.8469L42.1106 12.8332H2.89498L3.16404 10.8469H41.8415ZM37.6322 19.9376C32.2727 23.6049 28.7361 29.5744 26.6526 34.1528H18.3529C16.2695 29.5745 12.7328 23.6049 7.37333 19.9376C5.18301 18.4389 3.34093 17.7756 2.26448 17.4885L2.6225 14.8456H42.3832L42.7413 17.4885C41.6646 17.7756 39.8226 18.439 37.6322 19.9376Z" fill="black"/>
</svg>
