<svg width="75" height="75" viewBox="0 0 75 75" fill="none" xmlns="http://www.w3.org/2000/svg">
<g clip-path="url(#clip0_333_1253)">
<path d="M1.1842 47.2866C1.1842 30.7444 14.5943 17.3345 31.1363 17.3345C47.6783 17.3345 61.0884 30.7445 61.0884 47.2866C61.0884 58.806 54.5844 68.8047 45.0494 73.8156H17.2232C7.68826 68.8047 1.1842 58.806 1.1842 47.2866Z" fill="#DBCBA1"/>
<path d="M31.1364 66.8368C20.3391 66.8368 11.5862 58.0839 11.5862 47.2866C11.5862 36.4892 20.3391 27.7363 31.1364 27.7363C41.9338 27.7363 50.6865 36.4892 50.6865 47.2866C50.6865 58.0839 41.9336 66.8368 31.1364 66.8368Z" fill="#A89B80"/>
<path d="M65.9211 5.13189C65.9211 2.9519 67.6884 1.18457 69.8684 1.18457C72.0484 1.18457 73.8157 2.9519 73.8157 5.13189C73.8157 7.31187 72.0484 9.0792 69.8684 9.0792C67.6884 9.0792 65.9211 7.31187 65.9211 5.13189ZM62.7632 59.6055C61.6401 59.6055 60.5725 59.8415 59.6053 60.2642V59.6055C59.6053 55.2454 56.0706 51.7107 51.7105 51.7107C47.3504 51.7107 43.8157 55.2454 43.8157 59.6055V61.1844C42.4962 60.1932 40.8563 59.6055 39.0789 59.6055C34.7188 59.6055 31.1841 63.1401 31.1841 67.5002V73.8161H43.8157H46.9736H54.8684H59.6053H70.658V67.5002C70.658 63.1401 67.1233 59.6055 62.7632 59.6055ZM69.8684 43.8161C67.6883 43.8161 65.9211 45.5834 65.9211 47.7634C65.9211 49.9434 67.6884 51.7107 69.8684 51.7107C72.0484 51.7107 73.8157 49.9434 73.8157 47.7634C73.8157 45.5834 72.0485 43.8161 69.8684 43.8161ZM59.6053 34.3423C63.9654 34.3423 67.5 30.8077 67.5 26.4476C67.5 22.0875 63.9654 18.5528 59.6053 18.5528C55.2452 18.5528 51.7105 22.0875 51.7105 26.4476C51.7105 30.8077 55.2452 34.3423 59.6053 34.3423Z" fill="#A5BFCC"/>
<path d="M39.0789 62.7105C37.3349 62.7105 35.921 64.1243 35.921 65.8685C35.921 67.6125 37.3347 69.0264 39.0789 69.0264C40.823 69.0264 42.2368 67.6126 42.2368 65.8685C42.2368 64.1244 40.823 62.7105 39.0789 62.7105ZM53.2894 54.8158C51.5453 54.8158 50.1315 56.2295 50.1315 57.9737C50.1315 59.7177 51.5452 61.1316 53.2894 61.1316C55.0336 61.1316 56.4473 59.7179 56.4473 57.9737C56.4473 56.2296 55.0336 54.8158 53.2894 54.8158ZM64.3421 24.8684C64.3421 23.1243 62.9283 21.7104 61.1842 21.7104C59.4401 21.7104 58.0262 23.1242 58.0262 24.8684C58.0262 26.6125 59.44 28.0263 61.1842 28.0263C62.9283 28.0263 64.3421 26.6125 64.3421 24.8684ZM64.3421 62.7105C62.598 62.7105 61.1842 64.1243 61.1842 65.8685C61.1842 67.6125 62.5979 69.0264 64.3421 69.0264C66.0861 69.0264 67.5 67.6126 67.5 65.8685C67.5 64.1244 66.0861 62.7105 64.3421 62.7105Z" fill="#D7F3FF"/>
<path d="M64.7369 5.13164C64.7369 2.302 67.0387 0 69.8684 0C72.698 0 75 2.302 75 5.13164C75 7.96128 72.698 10.2633 69.8684 10.2633C67.0387 10.2631 64.7369 7.96128 64.7369 5.13164ZM67.1052 5.13164C67.1052 6.65522 68.3449 7.89478 69.8684 7.89478C71.3919 7.89478 72.6315 6.65508 72.6315 5.13164C72.6315 3.6082 71.3918 2.36851 69.8684 2.36851C68.3449 2.36836 67.1052 3.60791 67.1052 5.13164ZM12.7704 47.2865C12.7704 46.6323 12.2401 46.1023 11.5862 46.1023C10.9323 46.1023 10.402 46.6323 10.402 47.2865C10.402 52.0176 11.9539 56.4727 14.8897 60.1702C17.7376 63.7569 21.7416 66.3319 26.1645 67.4206C26.2595 67.444 26.3547 67.4553 26.4483 67.4553C26.9807 67.4553 27.4644 67.0939 27.5974 66.5539C27.7537 65.9188 27.3656 65.2771 26.7305 65.1209C18.5109 63.0976 12.7704 55.7637 12.7704 47.2865ZM75 47.763C75 50.5926 72.698 52.8946 69.8684 52.8946C67.0387 52.8946 64.7367 50.5926 64.7367 47.763C64.7367 44.9333 67.0387 42.6313 69.8684 42.6313C72.698 42.6313 75 44.9333 75 47.763ZM72.6316 47.763C72.6316 46.2394 71.3919 44.9999 69.8685 44.9999C68.3449 44.9999 67.1054 46.2396 67.1054 47.763C67.1054 49.2866 68.3451 50.5261 69.8685 50.5261C71.3919 50.5261 72.6316 49.2866 72.6316 47.763ZM75 73.8155C75 74.4697 74.47 74.9997 73.8158 74.9997H17.2462C17.2383 74.9999 17.2302 75 17.2223 75C17.2144 75 17.2063 74.9999 17.1984 74.9997H1.18418C0.530127 74.9997 0 74.4697 0 73.8155C0 73.1613 0.530273 72.6313 1.18418 72.6313H13.0427C4.90723 66.8316 0 57.4579 0 47.2865C0 30.1179 13.9677 16.1505 31.1364 16.1505C38.4725 16.1505 45.4771 18.6984 51.0659 23.3626C52.3314 19.8703 55.6816 17.3685 59.6054 17.3685C64.6116 17.3685 68.6843 21.4412 68.6843 26.4475C68.6843 31.4537 64.6116 35.5264 59.6054 35.5264C54.5991 35.5264 50.5264 31.4537 50.5264 26.4475C50.5264 26.3121 50.5295 26.177 50.5354 26.0432C45.2222 21.1869 38.3534 18.519 31.1364 18.519C15.2736 18.519 2.36851 31.4243 2.36851 47.2866C2.36851 57.9136 8.16548 67.5977 17.5187 72.6313H30V67.4997C30 62.4935 34.0727 58.4208 39.079 58.4208C40.3226 58.4208 41.5274 58.6679 42.6431 59.1453C42.883 54.3517 46.8582 50.526 51.7104 50.526C56.3933 50.526 60.2596 54.0896 60.7393 58.6475C61.3992 58.4968 62.0755 58.4206 62.763 58.4206C67.7692 58.4206 71.8419 62.4933 71.8419 67.4996V72.6312H73.8157C74.47 72.6312 75 73.1615 75 73.8155ZM52.8948 26.4472C52.8948 30.1472 55.905 33.1578 59.6054 33.1578C63.3057 33.1578 66.316 30.1475 66.316 26.4472C66.316 22.7468 63.3057 19.7366 59.6054 19.7366C55.905 19.7366 52.8948 22.7471 52.8948 26.4472ZM69.4737 67.4997C69.4737 63.7997 66.4635 60.7891 62.7631 60.7891C61.8322 60.7891 60.9293 60.9773 60.0794 61.3488C59.7133 61.5091 59.2912 61.4732 58.9569 61.2543C58.6226 61.0356 58.421 60.663 58.421 60.2635V59.6048C58.421 55.9047 55.4108 52.8942 51.7104 52.8942C48.0103 52.8942 44.9999 55.9044 44.9999 59.6048V61.1836C44.9999 61.6323 44.7463 62.0424 44.3449 62.2431C43.9437 62.4434 43.4632 62.4 43.1045 62.1303C41.9364 61.2527 40.5442 60.789 39.079 60.789C35.3788 60.789 32.3684 63.7992 32.3684 67.4996V72.6312H69.4736V67.4996L69.4737 67.4997ZM31.1364 31.2889C30.4824 31.2889 29.9522 31.8189 29.9522 32.4731C29.9522 33.1273 30.4825 33.6573 31.1364 33.6573C38.6515 33.6573 44.7658 39.7712 44.7658 47.2865C44.7658 47.9407 45.2958 48.4707 45.95 48.4707C46.6041 48.4707 47.1341 47.9407 47.1341 47.2865C47.1341 38.4653 39.9574 31.2889 31.1364 31.2889ZM50.6867 48.4707C51.3409 48.4707 51.8708 47.9407 51.8708 47.2865C51.8708 35.8535 42.5694 26.552 31.1363 26.552C21.7386 26.552 13.4962 32.8891 11.0921 41.9624C10.9245 42.5946 11.3013 43.2429 11.9335 43.4104C12.5659 43.5772 13.2141 43.2012 13.3815 42.5689C15.5106 34.533 22.8117 28.9204 31.1363 28.9204C41.2633 28.9204 49.5025 37.1591 49.5025 47.2865C49.5025 47.9407 50.0326 48.4707 50.6867 48.4707ZM60.5905 52.8817C60.6494 52.8905 60.7077 52.8946 60.7654 52.8946C61.3427 52.8946 61.848 52.4717 61.9352 51.8837C62.1589 50.3723 62.2724 48.8256 62.2724 47.2865C62.2724 44.3878 61.8744 41.5175 61.0888 38.7549C60.9101 38.1259 60.2555 37.7605 59.6259 37.9397C58.9969 38.1186 58.6318 38.7734 58.8107 39.4027C59.5361 41.9544 59.9039 44.6071 59.9039 47.2865C59.9039 48.71 59.799 50.14 59.5922 51.5369C59.4968 52.1839 59.9436 52.7859 60.5905 52.8817Z" fill="black"/>
</g>
<defs>
<clipPath id="clip0_333_1253">
<rect width="75" height="75" fill="white"/>
</clipPath>
</defs>
</svg>
