<svg width="93" height="19" viewBox="0 0 93 19" fill="none" xmlns="http://www.w3.org/2000/svg">
<rect width="87" height="19" rx="9.5" fill="#999999" fill-opacity="0.55"/>
<path d="M21.079 4.355V12H19.825V4.355H21.079ZM25.7834 5.84C26.2601 5.84 26.6854 5.939 27.0594 6.137C27.4407 6.335 27.7377 6.62833 27.9504 7.017C28.1631 7.40567 28.2694 7.875 28.2694 8.425V12H27.0264V8.612C27.0264 8.06933 26.8907 7.655 26.6194 7.369C26.3481 7.07567 25.9777 6.929 25.5084 6.929C25.0391 6.929 24.6651 7.07567 24.3864 7.369C24.1151 7.655 23.9794 8.06933 23.9794 8.612V12H22.7254V5.939H23.9794V6.632C24.1847 6.38267 24.4451 6.18833 24.7604 6.049C25.0831 5.90967 25.4241 5.84 25.7834 5.84ZM38.6444 13.386L37.3024 11.934C36.9724 12.0293 36.6094 12.077 36.2134 12.077C35.502 12.077 34.8457 11.912 34.2444 11.582C33.6504 11.2447 33.1774 10.779 32.8254 10.185C32.4807 9.58367 32.3084 8.909 32.3084 8.161C32.3084 7.413 32.4807 6.742 32.8254 6.148C33.1774 5.554 33.6504 5.092 34.2444 4.762C34.8457 4.42467 35.502 4.256 36.2134 4.256C36.932 4.256 37.5884 4.42467 38.1824 4.762C38.7837 5.092 39.2567 5.554 39.6014 6.148C39.946 6.742 40.1184 7.413 40.1184 8.161C40.1184 8.865 39.9644 9.503 39.6564 10.075C39.3557 10.6397 38.9377 11.0943 38.4024 11.439L40.2394 13.386H38.6444ZM33.5954 8.161C33.5954 8.72567 33.7054 9.22433 33.9254 9.657C34.1527 10.0823 34.4644 10.4123 34.8604 10.647C35.2564 10.8743 35.7074 10.988 36.2134 10.988C36.7194 10.988 37.1704 10.8743 37.5664 10.647C37.9624 10.4123 38.2704 10.0823 38.4904 9.657C38.7177 9.22433 38.8314 8.72567 38.8314 8.161C38.8314 7.59633 38.7177 7.10133 38.4904 6.676C38.2704 6.25067 37.9624 5.92433 37.5664 5.697C37.1704 5.46967 36.7194 5.356 36.2134 5.356C35.7074 5.356 35.2564 5.46967 34.8604 5.697C34.4644 5.92433 34.1527 6.25067 33.9254 6.676C33.7054 7.10133 33.5954 7.59633 33.5954 8.161ZM46.8736 5.939V12H45.6196V11.285C45.4216 11.5343 45.1612 11.7323 44.8386 11.879C44.5232 12.0183 44.1859 12.088 43.8266 12.088C43.3499 12.088 42.9209 11.989 42.5396 11.791C42.1656 11.593 41.8686 11.2997 41.6486 10.911C41.4359 10.5223 41.3296 10.053 41.3296 9.503V5.939H42.5726V9.316C42.5726 9.85867 42.7082 10.2767 42.9796 10.57C43.2509 10.856 43.6212 10.999 44.0906 10.999C44.5599 10.999 44.9302 10.856 45.2016 10.57C45.4802 10.2767 45.6196 9.85867 45.6196 9.316V5.939H46.8736ZM54.0831 8.821C54.0831 9.04833 54.0685 9.25367 54.0391 9.437H49.4081C49.4448 9.921 49.6245 10.3097 49.9471 10.603C50.2698 10.8963 50.6658 11.043 51.1351 11.043C51.8098 11.043 52.2865 10.7607 52.5651 10.196H53.9181C53.7348 10.7533 53.4011 11.2117 52.9171 11.571C52.4405 11.923 51.8465 12.099 51.1351 12.099C50.5558 12.099 50.0351 11.9707 49.5731 11.714C49.1185 11.45 48.7591 11.0833 48.4951 10.614C48.2385 10.1373 48.1101 9.58733 48.1101 8.964C48.1101 8.34067 48.2348 7.79433 48.4841 7.325C48.7408 6.84833 49.0965 6.48167 49.5511 6.225C50.0131 5.96833 50.5411 5.84 51.1351 5.84C51.7071 5.84 52.2168 5.96467 52.6641 6.214C53.1115 6.46333 53.4598 6.81533 53.7091 7.27C53.9585 7.71733 54.0831 8.23433 54.0831 8.821ZM52.7741 8.425C52.7668 7.963 52.6018 7.59267 52.2791 7.314C51.9565 7.03533 51.5568 6.896 51.0801 6.896C50.6475 6.896 50.2771 7.03533 49.9691 7.314C49.6611 7.58533 49.4778 7.95567 49.4191 8.425H52.7741ZM60.8062 5.939V12H59.5522V11.285C59.3542 11.5343 59.0939 11.7323 58.7712 11.879C58.4559 12.0183 58.1185 12.088 57.7592 12.088C57.2825 12.088 56.8535 11.989 56.4722 11.791C56.0982 11.593 55.8012 11.2997 55.5812 10.911C55.3685 10.5223 55.2622 10.053 55.2622 9.503V5.939H56.5052V9.316C56.5052 9.85867 56.6409 10.2767 56.9122 10.57C57.1835 10.856 57.5539 10.999 58.0232 10.999C58.4925 10.999 58.8629 10.856 59.1342 10.57C59.4129 10.2767 59.5522 9.85867 59.5522 9.316V5.939H60.8062ZM68.0157 8.821C68.0157 9.04833 68.0011 9.25367 67.9717 9.437H63.3407C63.3774 9.921 63.5571 10.3097 63.8797 10.603C64.2024 10.8963 64.5984 11.043 65.0677 11.043C65.7424 11.043 66.2191 10.7607 66.4977 10.196H67.8507C67.6674 10.7533 67.3337 11.2117 66.8497 11.571C66.3731 11.923 65.7791 12.099 65.0677 12.099C64.4884 12.099 63.9677 11.9707 63.5057 11.714C63.0511 11.45 62.6917 11.0833 62.4277 10.614C62.1711 10.1373 62.0427 9.58733 62.0427 8.964C62.0427 8.34067 62.1674 7.79433 62.4167 7.325C62.6734 6.84833 63.0291 6.48167 63.4837 6.225C63.9457 5.96833 64.4737 5.84 65.0677 5.84C65.6397 5.84 66.1494 5.96467 66.5967 6.214C67.0441 6.46333 67.3924 6.81533 67.6417 7.27C67.8911 7.71733 68.0157 8.23433 68.0157 8.821ZM66.7067 8.425C66.6994 7.963 66.5344 7.59267 66.2117 7.314C65.8891 7.03533 65.4894 6.896 65.0127 6.896C64.5801 6.896 64.2097 7.03533 63.9017 7.314C63.5937 7.58533 63.4104 7.95567 63.3517 8.425H66.7067Z" fill="black" fill-opacity="0.8"/>
</svg>
